<?xml version="1.0" encoding="utf-8"?>
<!-- Generator: Adobe Illustrator 27.5.0, SVG Export Plug-In . SVG Version: 6.00 Build 0)  -->
<svg version="1.1" xmlns="http://www.w3.org/2000/svg" xmlns:xlink="http://www.w3.org/1999/xlink" x="0px" y="0px"
	 viewBox="0 0 750 500" style="enable-background:new 0 0 750 500;" xml:space="preserve">
<g id="BACKGROUND">
	
		<rect x="125" y="-125" transform="matrix(-1.836970e-16 1 -1 -1.836970e-16 625 -125)" style="fill:#FBF3DD;" width="500" height="750"/>
</g>
<g id="OBJECTS">
	<g>
		<g>
			<defs>
				<path id="SVGID_1_" d="M415.532,46.478c-63.88-1.492-182.989-5.841-245.535,75.083s-78.794,185.514,19.003,222.284
					c97.798,36.769,364.068,18.142,391.575-2.815c27.507-20.956,102.327-98.96,47.313-195.592
					C572.874,48.806,473.528,47.833,415.532,46.478z"/>
			</defs>
			<clipPath id="SVGID_00000053528186357344866420000002638802008409826463_">
				<use xlink:href="#SVGID_1_"  style="overflow:visible;"/>
			</clipPath>
			
				<rect x="194.716" y="-98.701" transform="matrix(-1.836970e-16 1 -1 -1.836970e-16 593.8708 -156.1292)" style="clip-path:url(#SVGID_00000053528186357344866420000002638802008409826463_);fill:#F6E1A5;" width="360.568" height="635.143"/>
			<path style="clip-path:url(#SVGID_00000053528186357344866420000002638802008409826463_);fill:#FBF3DD;" d="M104.231,150.477
				c0.859-1.291,15.839-23.044,39.584-22.121c21.997,0.855,42.234,20.809,44.241,47.734c1.285-1.11,15.281-12.786,33.763-8.15
				c20.086,5.038,26.458,24.573,26.777,25.613c0.345-0.706,8.828-17.328,26.778-18.628c13.743-0.995,27.034,7.425,32.599,20.956
				c4.324-39.233,34.668-69.667,71.018-73.347c30.36-3.074,60.591,12.953,76.84,40.748c11.321-25.629,37.547-39.738,61.705-34.927
				c27.606,5.498,38.824,32.976,39.584,34.927c12.642-37.069,44.968-57.042,71.018-51.227c19.771,4.414,30.743,22.525,33.763,27.942
				c-6.597,84.213-13.195,168.427-19.792,252.64l-525.903-1.164L104.231,150.477z"/>
		</g>
		<ellipse style="fill:#CACACA;" cx="375" cy="393.913" rx="307.642" ry="18.316"/>
		<path style="fill:#FFFFFF;" d="M218.428,66.559h84c26.394,1.271,32.564-0.78,33-3c0.789-4.018-16.315-13.125-34-13
			c-11.379,0.08-20.445,3.964-26,7c0.395-4.852-2.656-8.097-5-8c-1.81,0.075-3.692,2.163-4.429,5c1.293-12.734-7.46-23.06-16.571-24
			c-10.163-1.048-22.029,9.454-21,24c-2.789-0.54-6.553-1.05-11-1c-14.163,0.16-28.371,5.922-28,9
			C189.601,63.995,193.122,66.311,218.428,66.559z"/>
		<path style="fill:#FFFFFF;" d="M587.624,168.243h84c26.394,1.271,32.564-0.78,33-3c0.789-4.018-16.315-13.124-34-13
			c-11.379,0.08-20.445,3.964-26,7c0.395-4.852-2.656-8.097-5-8c-1.81,0.075-3.692,2.163-4.429,5c1.292-12.734-7.46-23.06-16.571-24
			c-10.163-1.048-22.029,9.454-21,24c-2.789-0.54-6.553-1.05-11-1c-14.163,0.16-28.371,5.922-28,9
			C558.797,165.678,562.318,167.994,587.624,168.243z"/>
		<path style="fill:#FFFFFF;" d="M76.709,152.377h100.243c8.489-0.118,10.358-0.738,10.415-1.302
			c0.178-1.754-16.848-5.709-33.848-6.509c-5.4-0.254-9.898-0.148-13.019,0c0.857-8.484-4.839-15.772-11.717-16.924
			c-7.933-1.329-16.794,5.612-16.924,15.622c-2.046-4.819-7.057-7.483-11.717-6.509c-3.766,0.787-6.813,3.847-7.811,7.811
			c-3.534-0.709-8.455-1.409-14.32-1.302c-14.818,0.27-28.976,5.563-28.641,7.811C49.567,152.397,54.888,153.438,76.709,152.377z"/>
		<g>
			<path style="fill:#6060C1;" d="M136.157,114.317l22.233-18.961l87.453-47.463c1.512-0.82,3.402-0.285,4.215,1.194l63.366,115.258
				c0.812,1.477,0.242,3.334-1.273,4.144l-13.84,7.397L136.157,114.317z"/>
			<polygon style="fill:#FFFFFF;" points="246.879,50.058 159.667,97.571 139.235,115 300.335,188.237 311.896,167.152 			"/>
			<polygon style="fill:#E7E2DA;" points="246.879,50.058 213.78,82.117 139.235,115 300.335,188.237 311.896,167.152 			"/>
			<path style="fill:#7C77E8;" d="M299.156,192.167l-96.581,41.767l-66.417-119.616l92.285-50.085
				c1.507-0.818,3.392-0.288,4.209,1.183l68.009,122.482C301.529,189.465,300.833,191.441,299.156,192.167z"/>
			<path style="fill:#8484ED;" d="M266.481,126.343l-33.83-60.927c-0.817-1.471-2.701-2.001-4.209-1.183l-92.285,50.085
				l8.107,14.601C181.947,145.53,226.839,141.77,266.481,126.343z"/>
		</g>
		<g>
			<g>
				<g>
					<path style="fill:#538C7F;" d="M187.197,268.42c-0.318,0.048-0.616-0.169-0.665-0.488c-0.043-0.272-1.372-8.593-1.417-8.865
						c-6.29-37.793-34.323-70.208-34.607-70.534c-0.213-0.243-0.188-0.614,0.056-0.827c0.244-0.213,0.614-0.189,0.827,0.056
						c0.286,0.327,28.487,32.93,34.864,71.017c0.051,0.307,1.386,8.663,1.435,8.971c0.051,0.319-0.167,0.619-0.488,0.669
						C187.2,268.42,187.199,268.42,187.197,268.42z"/>
				</g>
				<g>
					<path style="fill:#538C7F;" d="M155.303,193.459c0,0-12.169-4.926-15.188-12.185
						C137.095,174.016,150.138,169.743,155.303,193.459z"/>
				</g>
				<g>
					<path style="fill:#538C7F;" d="M162.967,204.262c0,0-0.83-22.666,3.33-29.336C170.457,168.255,176.643,175.918,162.967,204.262
						z"/>
				</g>
				<g>
					<path style="fill:#538C7F;" d="M163.887,204.88c0,0-24.617,2.099-31.688-1.338C125.128,200.105,129.392,192.187,163.887,204.88
						z"/>
				</g>
				<g>
					<path style="fill:#538C7F;" d="M174.038,223.776c0,0-0.652-22.354,3.508-29.025
						C181.706,188.081,189.444,195.035,174.038,223.776z"/>
				</g>
				<g>
					<path style="fill:#538C7F;" d="M174.02,222.919c0,0-23.399,1.728-30.47-1.709C136.48,217.773,148.661,210.982,174.02,222.919z"
						/>
				</g>
				<g>
					<path style="fill:#538C7F;" d="M180.866,242.159c0,0,1.998-21.788,6.158-28.459C191.185,207.03,198.783,214.97,180.866,242.159
						z"/>
				</g>
				<g>
					<path style="fill:#538C7F;" d="M181.706,240.988c0,0-21.477,2.325-28.548-1.112S153.059,230.432,181.706,240.988z"/>
				</g>
				<g>
					<path style="fill:#538C7F;" d="M185.065,257.575c0,0,7.428-20.58,13.136-25.986
						C203.909,226.183,209.259,235.783,185.065,257.575z"/>
				</g>
				<g>
					<path style="fill:#538C7F;" d="M185.94,257.756c0,0-21.325-2.118-27.7-6.718C151.864,246.438,159.531,242.439,185.94,257.756z"
						/>
				</g>
			</g>
			<g>
				<g>
					<g>
						<path style="fill:#33584F;" d="M210.658,361.289c0,0-42.21-14.901-45.593-33.498c-3.383-18.596-6.802-28.253-17.843-34.956
							c-11.041-6.703-15.012-20.633-16.95-40.151c-1.937-19.518-23.12-32.321-23.12-32.321c21.295,0.339,50.664,3.943,58.95,23.315
							c8.286,19.372,27.707,19.652,41.028,35.276c13.32,15.624,9.544,37.942,14.931,53.644c5.386,15.702,9.716,34.434,9.716,34.434
							C218.619,365.264,210.658,361.289,210.658,361.289z"/>
						<g>
							<path style="fill:#538C7F;" d="M236.505,371.574c-3.395-2.531-6.61-5.294-9.731-8.15c-3.118-2.86-6.113-5.856-8.928-9.01
								c-5.705-6.231-10.738-13.122-14.487-20.684c-0.468-0.944-0.842-1.932-1.268-2.895c-0.415-0.969-0.839-1.932-1.188-2.933
								c-0.74-1.982-1.47-3.968-2.185-5.96c-1.442-3.98-2.836-7.979-4.372-11.935c-1.542-3.948-3.259-7.867-5.561-11.471
								c-2.284-3.61-5.199-6.822-8.523-9.499c-3.313-2.714-7.09-4.734-10.496-7.183c-3.426-2.439-6.611-5.238-9.228-8.524
								c-2.58-3.314-4.553-7.068-6.112-10.985c-1.57-3.917-2.886-7.944-4.286-11.942c-0.324-1.006-0.745-1.99-1.149-2.978
								c-0.364-1.006-0.89-1.937-1.395-2.877c-0.464-0.964-1.091-1.831-1.682-2.719c-0.557-0.913-1.281-1.702-1.945-2.535
								c-2.757-3.256-6.119-5.952-9.73-8.183c-7.28-4.434-15.389-7.157-23.455-9.672c8.027,2.635,16.091,5.484,23.252,9.997
								c3.568,2.242,6.884,4.923,9.585,8.151c0.65,0.825,1.361,1.606,1.904,2.509c0.577,0.878,1.191,1.734,1.642,2.686
								c0.491,0.928,1.006,1.845,1.358,2.838c0.392,0.974,0.801,1.939,1.121,2.952c1.378,4.001,2.673,8.037,4.233,11.991
								c1.549,3.952,3.532,7.78,6.143,11.169c2.647,3.362,5.871,6.221,9.322,8.706c3.458,2.508,7.184,4.531,10.424,7.207
								c3.283,2.618,6.148,5.742,8.411,9.278c2.281,3.528,4.004,7.399,5.559,11.322c1.55,3.931,2.965,7.923,4.428,11.897
								c0.725,1.99,1.466,3.974,2.218,5.955c0.353,0.997,0.787,1.97,1.211,2.946c0.435,0.97,0.818,1.965,1.295,2.915
								c3.821,7.603,8.908,14.503,14.673,20.714c2.871,3.121,5.916,6.078,9.082,8.894
								C229.813,366.378,233.072,369.094,236.505,371.574z"/>
							<g>
								<path style="fill:#538C7F;" d="M138.966,225.266c0.184,1.814,0.387,3.626,0.621,5.433c0.22,1.809,0.46,3.615,0.724,5.417
									l0.301-0.304c-1.485-0.21-2.967-0.444-4.455-0.633l-4.462-0.581c-1.487-0.195-2.98-0.349-4.47-0.526
									c-1.491-0.168-2.984-0.318-4.48-0.45c1.476,0.277,2.954,0.536,4.435,0.777c1.482,0.233,2.961,0.487,4.445,0.702l4.453,0.647
									c1.484,0.22,2.973,0.395,4.46,0.594l0.355,0.048l-0.053-0.352c-0.272-1.801-0.569-3.599-0.886-5.393
									C139.653,228.847,139.32,227.055,138.966,225.266z"/>
								<path style="fill:#538C7F;" d="M151.025,230.202c-0.515,2.795-0.977,5.597-1.424,8.401
									c-0.464,2.802-0.853,5.615-1.283,8.421l0.334-0.241c-1.587-0.302-3.183-0.556-4.774-0.837l-4.778-0.815
									c-3.19-0.515-6.38-1.029-9.584-1.468c3.158,0.695,6.329,1.315,9.501,1.934l4.765,0.886c1.59,0.287,3.175,0.599,4.769,0.864
									l0.295,0.049l0.039-0.291c0.378-2.814,0.797-5.623,1.14-8.442C150.387,235.847,150.732,233.028,151.025,230.202z"/>
								<path style="fill:#538C7F;" d="M160.377,238.039c-1.084,4.243-2.09,8.503-3.098,12.763
									c-0.977,4.267-1.968,8.53-2.908,12.805l0.34-0.216c-3.569-0.771-7.127-1.586-10.704-2.32
									c-3.572-0.756-7.148-1.494-10.734-2.185c3.539,0.904,7.089,1.759,10.642,2.598c3.549,0.861,7.115,1.639,10.672,2.463
									l0.276,0.064l0.064-0.28c0.97-4.268,1.887-8.548,2.82-12.825C158.649,246.623,159.552,242.34,160.377,238.039z"/>
								<path style="fill:#538C7F;" d="M168.419,252.113c-0.643,4.416-1.265,8.835-1.844,13.259
									c-0.598,4.422-1.129,8.852-1.697,13.277l0.328-0.251l-14.319-1.987l-7.167-0.938l-7.176-0.875l7.134,1.168l7.144,1.105
									l14.303,2.1l0.294,0.043l0.034-0.295c0.517-4.432,1.07-8.859,1.556-13.295C167.515,260.992,167.978,256.553,168.419,252.113
									z"/>
								<path style="fill:#538C7F;" d="M179.674,262.678c-0.039,4.435-0.076,8.87-0.06,13.305c-0.013,4.435,0.044,8.869,0.07,13.303
									l0.301-0.283c-5.641-0.438-11.288-0.787-16.933-1.181l-8.472-0.517l-8.476-0.453l8.454,0.762l8.459,0.698
									c5.643,0.416,11.282,0.878,16.928,1.25l0.306,0.02l-0.005-0.303c-0.07-4.434-0.11-8.868-0.221-13.302
									C179.944,271.544,179.81,267.111,179.674,262.678z"/>
								<polygon style="fill:#538C7F;" points="193.588,270.609 192.944,279.043 192.363,287.48 191.302,304.361 191.628,304.088 
									175.484,302.245 167.406,301.37 159.322,300.553 167.373,301.65 175.431,302.687 191.559,304.668 191.868,304.706 
									191.885,304.395 192.818,287.507 193.235,279.06 								"/>
								<path style="fill:#538C7F;" d="M210.05,287.698l-2.76,9.335l-2.698,9.352l-5.267,18.741l0.306-0.205
									c-5.258-0.594-10.511-1.229-15.774-1.784c-5.259-0.585-10.524-1.121-15.79-1.649c5.244,0.71,10.49,1.413,15.741,2.066
									c5.248,0.683,10.505,1.286,15.757,1.931l0.241,0.03l0.065-0.235l5.186-18.763l2.528-9.4L210.05,287.698z"/>
								<path style="fill:#538C7F;" d="M216.241,314.015c-1.281,4.97-2.543,9.944-3.762,14.929c-1.24,4.98-2.411,9.975-3.62,14.962
									l0.351-0.213l-16.442-4.088l-8.235-1.988l-8.251-1.926l8.178,2.215l8.193,2.153l16.415,4.194l0.285,0.073l0.066-0.286
									c1.158-4.999,2.354-9.989,3.482-14.995C214.05,324.043,215.155,319.031,216.241,314.015z"/>
								<path style="fill:#538C7F;" d="M219.932,333.516c-0.262,3.747-0.465,7.497-0.656,11.247c-0.2,3.75-0.335,7.502-0.507,11.253
									l0.353-0.272l-5.865-1.284l-5.869-1.266c-3.918-0.821-7.837-1.636-11.772-2.382c3.88,0.993,7.775,1.916,11.671,2.833
									l5.852,1.342l5.856,1.323l0.342,0.077l0.011-0.349c0.12-3.753,0.275-7.504,0.366-11.259
									C219.815,341.027,219.903,337.273,219.932,333.516z"/>
							</g>
						</g>
					</g>
					<g>
						<g>
							<path style="fill:#6EAC98;" d="M201.417,298.569c0,0-14.795-28.328-7.511-39.688c7.284-11.36,10.198-18.069,7.694-26.944
								c-2.505-8.875,2.201-18.084,10.689-29.223c8.488-11.138,3.655-28.135,3.655-28.135c10.959,10.542,24.545,26.719,19.444,40.87
								c-5.101,14.152,4.908,23.751,4.262,38.395c-0.647,14.645-13.482,24.464-18.311,35.288
								c-4.829,10.824-11.684,22.716-11.684,22.716C203.641,304.52,201.417,298.569,201.417,298.569z"/>
							<g>
								<path style="fill:#95CCBB;" d="M209.912,316.521c-0.541-2.975-0.876-5.983-1.117-8.993
									c-0.237-3.012-0.343-6.034-0.278-9.052c0.053-6.031,0.778-12.081,2.5-17.855c0.215-0.721,0.5-1.419,0.747-2.129
									c0.255-0.708,0.502-1.417,0.807-2.111c0.578-1.395,1.163-2.788,1.76-4.177c1.184-2.781,2.402-5.548,3.525-8.362
									c1.116-2.813,2.127-5.696,2.678-8.699c0.564-2.997,0.605-6.094,0.172-9.11c-0.41-3.03-1.399-5.924-1.986-8.861
									c-0.603-2.942-0.904-5.954-0.671-8.944c0.266-2.987,1.062-5.908,2.154-8.713c1.086-2.81,2.359-5.554,3.573-8.324
									c0.321-0.683,0.579-1.402,0.849-2.115c0.3-0.703,0.478-1.445,0.672-2.182c0.227-0.729,0.321-1.487,0.445-2.238
									c0.153-0.748,0.16-1.513,0.218-2.271c0.144-3.043-0.299-6.087-1.1-9.01c-1.644-5.86-4.555-11.228-7.544-16.468
									c2.91,5.283,5.736,10.697,7.28,16.539c0.773,2.908,1.2,5.922,1.04,8.923c-0.062,0.748-0.071,1.501-0.227,2.237
									c-0.126,0.739-0.222,1.485-0.449,2.202c-0.195,0.724-0.373,1.454-0.672,2.144c-0.27,0.7-0.525,1.403-0.851,2.088
									c-1.228,2.761-2.516,5.499-3.625,8.324c-1.115,2.818-1.942,5.783-2.228,8.824c-0.253,3.044,0.039,6.107,0.632,9.085
									c0.586,2.993,1.547,5.863,1.937,8.838c0.441,2.965,0.416,5.992-0.122,8.94c-0.526,2.953-1.51,5.813-2.607,8.62
									c-1.104,2.808-2.308,5.581-3.478,8.369c-0.59,1.392-1.168,2.79-1.74,4.19c-0.301,0.693-0.548,1.412-0.801,2.128
									c-0.245,0.718-0.529,1.424-0.742,2.152c-1.704,5.831-2.406,11.911-2.418,17.962c-0.02,3.028,0.132,6.054,0.415,9.066
									C208.946,310.55,209.326,313.555,209.912,316.521z"/>
								<g>
									<path style="fill:#95CCBB;" d="M230.174,192.624c-0.787,1.037-1.563,2.082-2.32,3.14c-0.766,1.052-1.519,2.112-2.259,3.182
										l0.306-0.012c-0.674-0.832-1.333-1.676-2.019-2.499l-2.048-2.475c-0.682-0.826-1.387-1.633-2.079-2.45
										c-0.697-0.813-1.404-1.618-2.121-2.415c0.636,0.863,1.282,1.718,1.938,2.564c0.661,0.843,1.309,1.696,1.98,2.53
										l2.011,2.505c0.668,0.837,1.361,1.653,2.04,2.481l0.162,0.198l0.144-0.21c0.734-1.074,1.454-2.157,2.162-3.248
										C228.789,194.829,229.487,193.73,230.174,192.624z"/>
									<path style="fill:#95CCBB;" d="M234.07,201.071c-1.629,1.209-3.234,2.448-4.833,3.695
										c-1.606,1.238-3.178,2.518-4.769,3.775l0.292,0.036c-0.682-0.93-1.392-1.84-2.087-2.76l-2.099-2.751
										c-1.416-1.822-2.832-3.643-4.292-5.431c1.311,1.9,2.666,3.768,4.022,5.634l2.058,2.782c0.691,0.924,1.367,1.858,2.07,2.772
										l0.13,0.169l0.162-0.133c1.567-1.286,3.153-2.549,4.704-3.855C230.989,203.71,232.541,202.405,234.07,201.071z"/>
									<path style="fill:#95CCBB;" d="M235.141,209.717c-2.631,1.689-5.23,3.424-7.83,5.159c-2.587,1.753-5.18,3.498-7.752,5.274
										l0.283,0.053c-1.489-2.139-2.951-4.298-4.462-6.422c-1.498-2.133-3.006-4.259-4.543-6.366
										c1.409,2.194,2.846,4.369,4.294,6.536c1.435,2.177,2.919,4.319,4.376,6.481l0.113,0.168l0.169-0.115
										c2.584-1.757,5.146-3.547,7.715-5.326C230.06,213.36,232.616,211.562,235.141,209.717z"/>
									<path style="fill:#95CCBB;" d="M232.492,220.982c-2.485,1.994-4.961,3.999-7.417,6.029
										c-2.464,2.019-4.898,4.074-7.349,6.11l0.294,0.028l-6.512-8.007l-3.287-3.979l-3.323-3.95l3.158,4.083l3.194,4.054
										l6.449,8.058l0.133,0.166l0.161-0.137c2.427-2.063,4.871-4.107,7.284-6.187
										C227.698,225.18,230.099,223.087,232.492,220.982z"/>
									<path style="fill:#95CCBB;" d="M233.228,231.979c-2.179,2.298-4.357,4.596-6.507,6.921
										c-2.165,2.31-4.294,4.654-6.438,6.983l0.295-0.001c-2.734-2.974-5.514-5.905-8.27-8.858l-4.173-4.394l-4.207-4.362
										l4.045,4.513l4.078,4.482c2.745,2.964,5.466,5.949,8.234,8.892l0.15,0.159l0.145-0.161c2.121-2.35,4.259-4.686,6.359-7.056
										C229.054,236.742,231.142,234.361,233.228,231.979z"/>
									<polygon style="fill:#95CCBB;" points="236.636,242.894 232.194,246.986 227.784,251.11 219.014,259.411 219.317,259.428 
										211.782,250.607 207.988,246.219 204.163,241.857 207.835,246.349 211.539,250.813 218.999,259.697 219.142,259.867 
										219.302,259.713 228.009,251.346 232.338,247.136 									"/>
									<path style="fill:#95CCBB;" d="M236.917,259.832l-5.985,3.533l-5.961,3.572l-11.872,7.226l0.26,0.042
										c-2.458-2.869-4.893-5.758-7.371-8.61c-2.462-2.866-4.952-5.708-7.445-8.547c2.394,2.924,4.792,5.844,7.217,8.741
										c2.409,2.911,4.861,5.785,7.291,8.678l0.112,0.133l0.148-0.091l11.841-7.277l5.895-3.68L236.917,259.832z"/>
									<path style="fill:#95CCBB;" d="M227.342,276.593c-3.088,1.973-6.168,3.957-9.231,5.967
										c-3.071,1.998-6.115,4.037-9.173,6.054l0.287,0.06l-6.598-10.138l-3.334-5.047l-3.372-5.022l3.194,5.137l3.232,5.112
										l6.533,10.18l0.113,0.177l0.174-0.117c3.038-2.047,6.092-4.072,9.117-6.138
										C221.317,280.764,224.333,278.684,227.342,276.593z"/>
									<path style="fill:#95CCBB;" d="M219.778,288.575c-1.961,1.83-3.892,3.69-5.817,5.556c-1.93,1.861-3.827,3.755-5.742,5.632
										l0.317,0.03l-2.439-3.525l-2.45-3.518c-1.647-2.336-3.297-4.669-4.99-6.973c1.544,2.407,3.129,4.785,4.718,7.16
										l2.404,3.549l2.415,3.542l0.141,0.207l0.176-0.177c1.889-1.902,3.796-3.786,5.671-5.703
										C216.062,292.442,217.935,290.523,219.778,288.575z"/>
								</g>
							</g>
						</g>
					</g>
				</g>
				<g>
					<path style="fill:#538C7F;" d="M168.037,341.128c0,0-31.183,0.242-37.138-10.153c-5.955-10.395-12.186-12.61-20.201-14.279
						c-8.015-1.669-10.886-10.368-16.172-21.62c-5.286-11.252-18.142-16.25-18.142-16.25c12.795-4.303,31.104-8.362,40.153,1.459
						c9.049,9.822,20.711,5.88,31.975,12.397c11.264,6.517,13.729,20.65,20.269,28.892c6.54,8.242,13.09,18.518,13.09,18.518
						C173.635,341.819,168.037,341.128,168.037,341.128z"/>
					<g>
						<path style="fill:#33584F;" d="M185.656,341.806c-2.564-0.794-5.069-1.765-7.538-2.811c-2.468-1.049-4.891-2.205-7.24-3.494
							c-4.727-2.516-9.192-5.569-13.031-9.294c-0.479-0.465-0.912-0.976-1.37-1.461c-0.453-0.491-0.91-0.977-1.33-1.501
							c-0.861-1.028-1.718-2.06-2.566-3.099c-1.703-2.073-3.382-4.168-5.137-6.206c-1.756-2.033-3.612-4.011-5.749-5.677
							c-2.128-1.674-4.549-2.976-7.102-3.873c-2.554-0.92-5.238-1.329-7.79-2.072c-2.563-0.733-5.058-1.731-7.317-3.141
							c-2.243-1.435-4.216-3.26-5.976-5.27c-1.767-2.008-3.405-4.136-5.087-6.228c-0.406-0.533-0.866-1.031-1.316-1.536
							c-0.43-0.524-0.942-0.969-1.442-1.424c-0.481-0.478-1.039-0.863-1.58-1.268c-0.526-0.428-1.125-0.746-1.698-1.103
							c-2.336-1.362-4.915-2.262-7.545-2.831c-5.287-1.109-10.708-1.021-16.059-0.817c5.353-0.124,10.774-0.127,16.007,1.054
							c2.606,0.585,5.154,1.485,7.451,2.842c0.563,0.356,1.153,0.672,1.668,1.096c0.531,0.402,1.078,0.784,1.549,1.257
							c0.49,0.451,0.991,0.89,1.412,1.408c0.44,0.499,0.889,0.989,1.294,1.527c1.67,2.099,3.297,4.236,5.066,6.268
							c1.761,2.034,3.756,3.901,6.033,5.374c2.293,1.448,4.824,2.475,7.411,3.229c2.596,0.767,5.25,1.187,7.753,2.101
							c2.515,0.87,4.888,2.131,6.988,3.764c2.109,1.626,3.957,3.573,5.716,5.589c1.758,2.021,3.447,4.106,5.162,6.171
							c0.854,1.035,1.717,2.064,2.585,3.089c0.422,0.521,0.887,1.011,1.347,1.504c0.465,0.488,0.904,1.001,1.39,1.467
							c3.892,3.734,8.39,6.781,13.149,9.272c2.376,1.257,4.82,2.38,7.307,3.393C180.558,340.116,183.08,341.05,185.656,341.806z"/>
						<g>
							<path style="fill:#33584F;" d="M96.429,275.025c0.493,1.045,0.998,2.085,1.52,3.114c0.514,1.034,1.04,2.063,1.579,3.083
								l0.116-0.246c-0.932,0.189-1.867,0.362-2.795,0.564l-2.789,0.597c-0.93,0.198-1.854,0.422-2.782,0.631
								c-0.926,0.215-1.85,0.441-2.772,0.679c0.94-0.147,1.878-0.305,2.814-0.474c0.935-0.174,1.872-0.335,2.804-0.521l2.797-0.556
								c0.933-0.182,1.86-0.393,2.79-0.588l0.222-0.047l-0.106-0.199c-0.544-1.018-1.102-2.03-1.67-3.035
								C97.597,277.02,97.019,276.019,96.429,275.025z"/>
							<path style="fill:#33584F;" d="M104.678,275.423c0.284,1.779,0.6,3.55,0.926,5.321c0.315,1.772,0.678,3.535,1.015,5.303
								l0.148-0.215c-1.012,0.155-2.019,0.341-3.029,0.51l-3.027,0.524c-2.015,0.367-4.03,0.735-6.037,1.15
								c2.034-0.253,4.06-0.553,6.085-0.855l3.034-0.479c1.011-0.165,2.024-0.314,3.032-0.493l0.187-0.033l-0.038-0.182
								c-0.37-1.761-0.713-3.528-1.105-5.285C105.491,278.931,105.101,277.174,104.678,275.423z"/>
							<path style="fill:#33584F;" d="M111.924,278.127c0.25,2.764,0.55,5.522,0.849,8.281c0.319,2.756,0.629,5.513,0.972,8.266
								l0.157-0.201c-2.295,0.294-4.594,0.56-6.886,0.878c-2.294,0.304-4.587,0.619-6.876,0.965
								c2.305-0.209,4.607-0.448,6.908-0.699c2.302-0.237,4.598-0.526,6.897-0.786l0.179-0.02l-0.021-0.181
								c-0.324-2.755-0.681-5.507-1.028-8.259C112.707,283.622,112.34,280.871,111.924,278.127z"/>
							<path style="fill:#33584F;" d="M119.705,284.835c0.55,2.775,1.113,5.546,1.703,8.312c0.578,2.768,1.198,5.528,1.795,8.292
								l0.143-0.22l-8.975,1.842l-4.481,0.956l-4.473,0.996l4.51-0.811l4.502-0.851l8.99-1.771l0.185-0.036l-0.042-0.183
								c-0.629-2.757-1.235-5.519-1.882-8.272C121.044,290.331,120.381,287.581,119.705,284.835z"/>
							<path style="fill:#33584F;" d="M128.665,288.766c0.915,2.658,1.831,5.316,2.779,7.962c0.93,2.652,1.902,5.29,2.856,7.933
								l0.12-0.233c-3.463,0.932-6.911,1.918-10.366,2.877l-5.171,1.483l-5.16,1.522l5.212-1.333l5.201-1.372
								c3.459-0.945,6.926-1.862,10.378-2.834l0.187-0.053l-0.067-0.18c-0.98-2.634-1.942-5.275-2.946-7.901
								C130.702,294.006,129.684,291.386,128.665,288.766z"/>
							<polygon style="fill:#33584F;" points="138.655,290.561 140.055,295.736 141.493,300.9 144.43,311.21 144.567,310.978 
								134.531,313.292 129.52,314.478 124.517,315.701 129.56,314.652 134.594,313.568 144.648,311.34 144.841,311.297 
								144.786,311.108 141.771,300.82 140.232,295.685 							"/>
							<path style="fill:#33584F;" d="M152.106,297.289l0.325,6.161l0.366,6.158l0.818,12.311l0.139-0.187
								c-3.267,0.758-6.54,1.489-9.802,2.271c-3.266,0.763-6.525,1.556-9.783,2.355c3.284-0.685,6.566-1.375,9.842-2.096
								c3.28-0.702,6.548-1.454,9.823-2.18l0.15-0.033l-0.011-0.154l-0.871-12.307l-0.478-6.151L152.106,297.289z"/>
							<path style="fill:#33584F;" d="M161.372,311.703c0.286,3.24,0.584,6.479,0.91,9.715c0.313,3.237,0.67,6.47,1.002,9.705
								l0.165-0.202l-10.688,1.036l-5.341,0.554l-5.337,0.595l5.354-0.406l5.351-0.447l10.695-0.967l0.186-0.017l-0.021-0.185
								c-0.365-3.232-0.706-6.466-1.092-9.696C162.184,318.157,161.784,314.929,161.372,311.703z"/>
							<path style="fill:#33584F;" d="M167.703,322.573c0.636,2.294,1.308,4.578,1.988,6.859c0.674,2.283,1.387,4.553,2.078,6.831
								l0.153-0.237l-3.776,0.474l-3.774,0.485c-2.514,0.338-5.028,0.68-7.537,1.067c2.528-0.228,5.05-0.5,7.572-0.776l3.78-0.436
								l3.779-0.448l0.221-0.026l-0.067-0.211c-0.722-2.268-1.423-4.542-2.163-6.804
								C169.222,327.085,168.48,324.824,167.703,322.573z"/>
						</g>
					</g>
				</g>
			</g>
			<g>
				<g>
					<path style="fill:#33584F;" d="M141.941,355.817c-0.205,0.201-0.533,0.199-0.736-0.005
						c-24.254-24.41-61.957-33.32-62.335-33.408c-0.281-0.064-0.456-0.345-0.391-0.626c0.065-0.281,0.345-0.457,0.626-0.391
						c0.381,0.087,38.37,9.061,62.841,33.689c0.203,0.204,0.202,0.535-0.003,0.738C141.943,355.815,141.942,355.816,141.941,355.817
						z"/>
				</g>
				<g>
					<path style="fill:#33584F;" d="M84.905,323.459c0,0-11.361,2.793-17.331-0.874C61.604,318.917,68.796,309.023,84.905,323.459z"
						/>
				</g>
				<g>
					<path style="fill:#33584F;" d="M96.079,327.262c0,0-12.43-15.939-12.906-22.929C82.696,297.343,91.164,299.65,96.079,327.262z"
						/>
				</g>
				<g>
					<path style="fill:#33584F;" d="M97.067,327.228c0,0-16.687,14.365-23.588,15.573C66.577,344.009,65.524,336.064,97.067,327.228
						z"/>
				</g>
				<g>
					<path style="fill:#33584F;" d="M114.262,335.579c0,0-12.139-15.807-12.615-22.797
						C101.17,305.792,110.39,306.777,114.262,335.579z"/>
				</g>
				<g>
					<path style="fill:#33584F;" d="M113.802,334.97c0,0-16,13.462-22.902,14.669C83.999,350.847,89.253,339.583,113.802,334.97z"/>
				</g>
				<g>
					<path style="fill:#33584F;" d="M128.789,345.295c0,0-9.929-16.781-10.406-23.771
						C117.907,314.533,127.54,316.303,128.789,345.295z"/>
				</g>
				<g>
					<path style="fill:#33584F;" d="M128.785,344.01c0,0-14.3,12.889-21.202,14.097C100.682,359.315,102.582,351.337,128.785,344.01
						z"/>
				</g>
			</g>
		</g>
		<g>
			<g>
				<g>
					<path style="fill:#538C7F;" d="M562.802,268.42c0.318,0.048,0.616-0.169,0.666-0.488c0.043-0.272,1.372-8.593,1.417-8.865
						c6.29-37.793,34.323-70.208,34.607-70.534c0.213-0.243,0.188-0.614-0.056-0.827c-0.244-0.213-0.614-0.189-0.827,0.056
						c-0.286,0.327-28.487,32.93-34.864,71.017c-0.051,0.307-1.386,8.663-1.435,8.971c-0.051,0.319,0.168,0.619,0.488,0.669
						C562.8,268.42,562.801,268.42,562.802,268.42z"/>
				</g>
				<g>
					<path style="fill:#538C7F;" d="M594.697,193.459c0,0,12.169-4.926,15.188-12.185
						C612.905,174.016,599.862,169.743,594.697,193.459z"/>
				</g>
				<g>
					<path style="fill:#538C7F;" d="M587.033,204.262c0,0,0.83-22.666-3.33-29.336C579.543,168.255,573.357,175.918,587.033,204.262
						z"/>
				</g>
				<g>
					<path style="fill:#538C7F;" d="M586.113,204.88c0,0,24.617,2.099,31.688-1.338C624.871,200.105,620.608,192.187,586.113,204.88
						z"/>
				</g>
				<g>
					<path style="fill:#538C7F;" d="M575.962,223.776c0,0,0.652-22.354-3.508-29.025
						C568.294,188.081,560.556,195.035,575.962,223.776z"/>
				</g>
				<g>
					<path style="fill:#538C7F;" d="M575.98,222.919c0,0,23.399,1.728,30.47-1.709C613.52,217.773,601.339,210.982,575.98,222.919z"
						/>
				</g>
				<g>
					<path style="fill:#538C7F;" d="M569.134,242.159c0,0-1.998-21.788-6.158-28.459C558.815,207.03,551.217,214.97,569.134,242.159
						z"/>
				</g>
				<g>
					<path style="fill:#538C7F;" d="M568.294,240.988c0,0,21.477,2.325,28.548-1.112
						C603.912,236.439,596.941,230.432,568.294,240.988z"/>
				</g>
				<g>
					<path style="fill:#538C7F;" d="M564.935,257.575c0,0-7.428-20.58-13.136-25.986
						C546.091,226.183,540.741,235.783,564.935,257.575z"/>
				</g>
				<g>
					<path style="fill:#538C7F;" d="M564.06,257.756c0,0,21.325-2.118,27.7-6.718S590.469,242.439,564.06,257.756z"/>
				</g>
			</g>
			<g>
				<g>
					<g>
						<path style="fill:#33584F;" d="M539.341,361.289c0,0,42.21-14.901,45.593-33.498c3.383-18.596,6.802-28.253,17.843-34.956
							c11.041-6.703,15.012-20.633,16.95-40.151c1.937-19.518,23.12-32.321,23.12-32.321c-21.295,0.339-50.664,3.943-58.95,23.315
							s-27.707,19.652-41.028,35.276c-13.32,15.624-9.544,37.942-14.931,53.644c-5.386,15.702-9.716,34.434-9.716,34.434
							C531.381,365.264,539.341,361.289,539.341,361.289z"/>
						<g>
							<path style="fill:#538C7F;" d="M513.495,371.574c3.395-2.531,6.61-5.294,9.731-8.15c3.118-2.86,6.113-5.856,8.928-9.01
								c5.705-6.231,10.738-13.122,14.487-20.684c0.468-0.944,0.842-1.932,1.268-2.895c0.415-0.969,0.839-1.932,1.188-2.933
								c0.74-1.982,1.47-3.968,2.185-5.96c1.442-3.98,2.836-7.979,4.372-11.935c1.542-3.948,3.259-7.867,5.561-11.471
								c2.284-3.61,5.199-6.822,8.523-9.499c3.313-2.714,7.09-4.734,10.496-7.183c3.426-2.439,6.611-5.238,9.228-8.524
								c2.58-3.314,4.554-7.068,6.112-10.985c1.57-3.917,2.886-7.944,4.286-11.942c0.324-1.006,0.745-1.99,1.149-2.978
								c0.364-1.006,0.891-1.937,1.395-2.877c0.464-0.964,1.091-1.831,1.681-2.719c0.557-0.913,1.281-1.702,1.945-2.535
								c2.757-3.256,6.119-5.952,9.73-8.183c7.28-4.434,15.389-7.157,23.455-9.672c-8.027,2.635-16.091,5.484-23.252,9.997
								c-3.568,2.242-6.884,4.923-9.585,8.151c-0.65,0.825-1.361,1.606-1.904,2.509c-0.577,0.878-1.191,1.734-1.642,2.686
								c-0.491,0.928-1.006,1.845-1.358,2.838c-0.392,0.974-0.801,1.939-1.121,2.952c-1.378,4.001-2.673,8.037-4.233,11.991
								c-1.549,3.952-3.532,7.78-6.143,11.169c-2.647,3.362-5.871,6.221-9.322,8.706c-3.458,2.508-7.184,4.531-10.424,7.207
								c-3.283,2.618-6.148,5.742-8.411,9.278c-2.281,3.528-4.004,7.399-5.559,11.322c-1.55,3.931-2.965,7.923-4.428,11.897
								c-0.725,1.99-1.466,3.974-2.218,5.955c-0.353,0.997-0.787,1.97-1.211,2.946c-0.435,0.97-0.818,1.965-1.295,2.915
								c-3.821,7.603-8.908,14.503-14.673,20.714c-2.871,3.121-5.916,6.078-9.082,8.894
								C520.186,366.378,516.928,369.094,513.495,371.574z"/>
							<g>
								<path style="fill:#538C7F;" d="M611.034,225.266c-0.184,1.814-0.387,3.626-0.621,5.433c-0.22,1.809-0.46,3.615-0.724,5.417
									l-0.301-0.304c1.485-0.21,2.967-0.444,4.455-0.633l4.462-0.581c1.487-0.195,2.98-0.349,4.469-0.526
									c1.491-0.168,2.984-0.318,4.48-0.45c-1.476,0.277-2.954,0.536-4.435,0.777c-1.482,0.233-2.961,0.487-4.445,0.702
									l-4.453,0.647c-1.484,0.22-2.974,0.395-4.46,0.594l-0.355,0.048l0.053-0.352c0.272-1.801,0.569-3.599,0.886-5.393
									C610.347,228.847,610.68,227.055,611.034,225.266z"/>
								<path style="fill:#538C7F;" d="M598.975,230.202c0.515,2.795,0.977,5.597,1.424,8.401c0.464,2.802,0.853,5.615,1.283,8.421
									l-0.334-0.241c1.587-0.302,3.183-0.556,4.774-0.837l4.778-0.815c3.19-0.515,6.38-1.029,9.584-1.468
									c-3.158,0.695-6.329,1.315-9.501,1.934l-4.765,0.886c-1.59,0.287-3.175,0.599-4.769,0.864l-0.295,0.049l-0.039-0.291
									c-0.378-2.814-0.797-5.623-1.14-8.442C599.613,235.847,599.268,233.028,598.975,230.202z"/>
								<path style="fill:#538C7F;" d="M589.622,238.039c1.084,4.243,2.091,8.503,3.098,12.763c0.977,4.267,1.968,8.53,2.908,12.805
									l-0.34-0.216c3.569-0.771,7.127-1.586,10.704-2.32c3.572-0.756,7.148-1.494,10.734-2.185
									c-3.539,0.904-7.089,1.759-10.642,2.598c-3.549,0.861-7.115,1.639-10.672,2.463l-0.276,0.064l-0.064-0.28
									c-0.97-4.268-1.887-8.548-2.82-12.825C591.351,246.623,590.448,242.34,589.622,238.039z"/>
								<path style="fill:#538C7F;" d="M581.581,252.113c0.643,4.416,1.265,8.835,1.844,13.259
									c0.598,4.422,1.129,8.852,1.697,13.277l-0.328-0.251l14.319-1.987l7.167-0.938l7.176-0.875l-7.134,1.168l-7.144,1.105
									l-14.303,2.1l-0.294,0.043l-0.034-0.295c-0.517-4.432-1.07-8.859-1.556-13.295
									C582.485,260.992,582.022,256.553,581.581,252.113z"/>
								<path style="fill:#538C7F;" d="M570.326,262.678c0.039,4.435,0.076,8.87,0.06,13.305c0.013,4.435-0.044,8.869-0.07,13.303
									l-0.301-0.283c5.641-0.438,11.288-0.787,16.932-1.181l8.472-0.517l8.476-0.453l-8.454,0.762l-8.458,0.698
									c-5.643,0.416-11.282,0.878-16.928,1.25l-0.306,0.02l0.005-0.303c0.07-4.434,0.11-8.868,0.221-13.302
									C570.056,271.544,570.19,267.111,570.326,262.678z"/>
								<polygon style="fill:#538C7F;" points="556.412,270.609 557.056,279.043 557.637,287.48 558.698,304.361 558.372,304.088 
									574.516,302.245 582.594,301.37 590.678,300.553 582.627,301.65 574.569,302.687 558.441,304.668 558.132,304.706 
									558.115,304.395 557.181,287.507 556.765,279.06 								"/>
								<path style="fill:#538C7F;" d="M539.95,287.698l2.76,9.335l2.698,9.352l5.267,18.741l-0.306-0.205
									c5.258-0.594,10.512-1.229,15.774-1.784c5.259-0.585,10.524-1.121,15.79-1.649c-5.244,0.71-10.49,1.413-15.741,2.066
									c-5.248,0.683-10.505,1.286-15.757,1.931l-0.241,0.03l-0.065-0.235l-5.186-18.763l-2.528-9.4L539.95,287.698z"/>
								<path style="fill:#538C7F;" d="M533.759,314.015c1.281,4.97,2.543,9.944,3.762,14.929c1.24,4.98,2.411,9.975,3.62,14.962
									l-0.351-0.213l16.442-4.088l8.235-1.988l8.251-1.926l-8.178,2.215l-8.193,2.153l-16.415,4.194l-0.285,0.073l-0.066-0.286
									c-1.158-4.999-2.354-9.989-3.482-14.995C535.95,324.043,534.845,319.031,533.759,314.015z"/>
								<path style="fill:#538C7F;" d="M530.068,333.516c0.262,3.747,0.465,7.497,0.656,11.247c0.2,3.75,0.336,7.502,0.507,11.253
									l-0.353-0.272l5.865-1.284l5.869-1.266c3.918-0.821,7.837-1.636,11.771-2.382c-3.88,0.993-7.775,1.916-11.671,2.833
									l-5.852,1.342l-5.856,1.323l-0.342,0.077l-0.011-0.349c-0.12-3.753-0.275-7.504-0.366-11.259
									C530.185,341.027,530.097,337.273,530.068,333.516z"/>
							</g>
						</g>
					</g>
					<g>
						<g>
							<path style="fill:#6EAC98;" d="M548.583,298.569c0,0,14.795-28.328,7.511-39.688s-10.198-18.069-7.694-26.944
								c2.505-8.875-2.201-18.084-10.689-29.223c-8.488-11.138-3.654-28.135-3.654-28.135
								c-10.959,10.542-24.545,26.719-19.445,40.87c5.101,14.152-4.908,23.751-4.262,38.395
								c0.647,14.645,13.482,24.464,18.311,35.288s11.684,22.716,11.684,22.716C546.359,304.52,548.583,298.569,548.583,298.569z"/>
							<g>
								<path style="fill:#95CCBB;" d="M540.088,316.521c0.541-2.975,0.876-5.983,1.117-8.993c0.237-3.012,0.343-6.034,0.278-9.052
									c-0.053-6.031-0.778-12.081-2.5-17.855c-0.215-0.721-0.5-1.419-0.747-2.129c-0.255-0.708-0.502-1.417-0.807-2.111
									c-0.578-1.395-1.163-2.788-1.76-4.177c-1.184-2.781-2.402-5.548-3.525-8.362c-1.116-2.813-2.127-5.696-2.678-8.699
									c-0.564-2.997-0.605-6.094-0.172-9.11c0.41-3.03,1.399-5.924,1.986-8.861c0.603-2.942,0.904-5.954,0.671-8.944
									c-0.266-2.987-1.062-5.908-2.154-8.713c-1.086-2.81-2.359-5.554-3.573-8.324c-0.321-0.683-0.579-1.402-0.849-2.115
									c-0.3-0.703-0.477-1.445-0.672-2.182c-0.227-0.729-0.321-1.487-0.445-2.238c-0.153-0.748-0.159-1.513-0.218-2.271
									c-0.144-3.043,0.299-6.087,1.1-9.01c1.644-5.86,4.555-11.228,7.544-16.468c-2.91,5.283-5.736,10.697-7.28,16.539
									c-0.773,2.908-1.2,5.922-1.04,8.923c0.062,0.748,0.071,1.501,0.227,2.237c0.126,0.739,0.222,1.485,0.449,2.202
									c0.195,0.724,0.373,1.454,0.672,2.144c0.27,0.7,0.525,1.403,0.851,2.088c1.228,2.761,2.516,5.499,3.625,8.324
									c1.115,2.818,1.942,5.783,2.228,8.824c0.253,3.044-0.039,6.107-0.632,9.085c-0.586,2.993-1.547,5.863-1.937,8.838
									c-0.441,2.965-0.416,5.992,0.122,8.94c0.526,2.953,1.51,5.813,2.607,8.62c1.103,2.808,2.307,5.581,3.478,8.369
									c0.59,1.392,1.168,2.79,1.74,4.19c0.301,0.693,0.548,1.412,0.801,2.128c0.245,0.718,0.529,1.424,0.742,2.152
									c1.704,5.831,2.406,11.911,2.418,17.962c0.019,3.028-0.132,6.054-0.415,9.066
									C541.054,310.55,540.674,313.555,540.088,316.521z"/>
								<g>
									<path style="fill:#95CCBB;" d="M519.826,192.624c0.787,1.037,1.563,2.082,2.32,3.14c0.766,1.052,1.519,2.112,2.258,3.182
										l-0.305-0.012c0.674-0.832,1.333-1.676,2.019-2.499l2.048-2.475c0.682-0.826,1.387-1.633,2.079-2.45
										c0.697-0.813,1.404-1.618,2.121-2.415c-0.636,0.863-1.282,1.718-1.938,2.564c-0.661,0.843-1.309,1.696-1.98,2.53
										l-2.011,2.505c-0.668,0.837-1.361,1.653-2.04,2.481l-0.162,0.198l-0.144-0.21c-0.734-1.074-1.454-2.157-2.162-3.248
										C521.211,194.829,520.513,193.73,519.826,192.624z"/>
									<path style="fill:#95CCBB;" d="M515.93,201.071c1.629,1.209,3.234,2.448,4.833,3.695c1.606,1.238,3.178,2.518,4.769,3.775
										l-0.292,0.036c0.682-0.93,1.392-1.84,2.086-2.76l2.099-2.751c1.415-1.822,2.832-3.643,4.292-5.431
										c-1.311,1.9-2.666,3.768-4.022,5.634l-2.058,2.782c-0.691,0.924-1.367,1.858-2.07,2.772l-0.13,0.169l-0.162-0.133
										c-1.567-1.286-3.153-2.549-4.705-3.855C519.011,203.71,517.459,202.405,515.93,201.071z"/>
									<path style="fill:#95CCBB;" d="M514.859,209.717c2.631,1.689,5.231,3.424,7.83,5.159c2.587,1.753,5.18,3.498,7.752,5.274
										l-0.282,0.053c1.489-2.139,2.951-4.298,4.462-6.422c1.498-2.133,3.006-4.259,4.544-6.366
										c-1.409,2.194-2.846,4.369-4.294,6.536c-1.435,2.177-2.919,4.319-4.376,6.481l-0.113,0.168l-0.169-0.115
										c-2.584-1.757-5.146-3.547-7.715-5.326C519.94,213.36,517.384,211.562,514.859,209.717z"/>
									<path style="fill:#95CCBB;" d="M517.508,220.982c2.485,1.994,4.961,3.999,7.417,6.029c2.464,2.019,4.898,4.074,7.349,6.11
										l-0.294,0.028l6.513-8.007l3.287-3.979l3.323-3.95l-3.158,4.083l-3.194,4.054l-6.449,8.058l-0.133,0.166l-0.161-0.137
										c-2.427-2.063-4.871-4.107-7.284-6.187C522.302,225.18,519.9,223.087,517.508,220.982z"/>
									<path style="fill:#95CCBB;" d="M516.772,231.979c2.179,2.298,4.357,4.596,6.507,6.921c2.165,2.31,4.294,4.654,6.438,6.983
										l-0.295-0.001c2.734-2.974,5.514-5.905,8.27-8.858l4.173-4.394l4.207-4.362l-4.045,4.513l-4.078,4.482
										c-2.745,2.964-5.466,5.949-8.233,8.892l-0.15,0.159l-0.145-0.161c-2.121-2.35-4.259-4.686-6.359-7.056
										C520.946,236.742,518.858,234.361,516.772,231.979z"/>
									<polygon style="fill:#95CCBB;" points="513.364,242.894 517.805,246.986 522.216,251.11 530.986,259.411 530.683,259.428 
										538.218,250.607 542.012,246.219 545.837,241.857 542.165,246.349 538.461,250.813 531.001,259.697 530.858,259.867 
										530.698,259.713 521.991,251.346 517.662,247.136 									"/>
									<path style="fill:#95CCBB;" d="M513.083,259.832l5.985,3.533l5.961,3.572l11.872,7.226l-0.26,0.042
										c2.458-2.869,4.893-5.758,7.371-8.61c2.462-2.866,4.951-5.708,7.445-8.547c-2.394,2.924-4.792,5.844-7.217,8.741
										c-2.409,2.911-4.861,5.785-7.291,8.678l-0.112,0.133l-0.148-0.091l-11.841-7.277l-5.895-3.68L513.083,259.832z"/>
									<path style="fill:#95CCBB;" d="M522.658,276.593c3.088,1.973,6.168,3.957,9.231,5.967c3.071,1.998,6.115,4.037,9.173,6.054
										l-0.287,0.06l6.598-10.138l3.334-5.047l3.372-5.022l-3.193,5.137l-3.232,5.112l-6.533,10.18l-0.114,0.177l-0.174-0.117
										c-3.038-2.047-6.092-4.072-9.117-6.138C528.683,280.764,525.667,278.684,522.658,276.593z"/>
									<path style="fill:#95CCBB;" d="M530.222,288.575c1.961,1.83,3.892,3.69,5.817,5.556c1.93,1.861,3.827,3.755,5.742,5.632
										l-0.317,0.03l2.439-3.525l2.45-3.518c1.647-2.336,3.297-4.669,4.99-6.973c-1.544,2.407-3.129,4.785-4.717,7.16
										l-2.404,3.549l-2.415,3.542l-0.141,0.207l-0.176-0.177c-1.889-1.902-3.796-3.786-5.671-5.703
										C533.938,292.442,532.065,290.523,530.222,288.575z"/>
								</g>
							</g>
						</g>
					</g>
				</g>
				<g>
					<path style="fill:#538C7F;" d="M581.963,341.128c0,0,31.183,0.242,37.138-10.153c5.955-10.395,12.186-12.61,20.201-14.279
						c8.015-1.669,10.886-10.368,16.172-21.62c5.286-11.252,18.142-16.25,18.142-16.25c-12.795-4.303-31.104-8.362-40.153,1.459
						c-9.049,9.822-20.711,5.88-31.975,12.397c-11.264,6.517-13.729,20.65-20.269,28.892c-6.54,8.242-13.09,18.518-13.09,18.518
						C576.365,341.819,581.963,341.128,581.963,341.128z"/>
					<g>
						<path style="fill:#33584F;" d="M564.344,341.806c2.564-0.794,5.069-1.765,7.538-2.811c2.468-1.049,4.891-2.205,7.24-3.494
							c4.727-2.516,9.192-5.569,13.031-9.294c0.479-0.465,0.912-0.976,1.37-1.461c0.453-0.491,0.91-0.977,1.33-1.501
							c0.861-1.028,1.718-2.06,2.566-3.099c1.703-2.073,3.382-4.168,5.137-6.206c1.756-2.033,3.612-4.011,5.749-5.677
							c2.128-1.674,4.549-2.976,7.102-3.873c2.554-0.92,5.237-1.329,7.79-2.072c2.563-0.733,5.058-1.731,7.317-3.141
							c2.243-1.435,4.216-3.26,5.976-5.27c1.767-2.008,3.405-4.136,5.087-6.228c0.406-0.533,0.866-1.031,1.316-1.536
							c0.43-0.524,0.942-0.969,1.442-1.424c0.481-0.478,1.039-0.863,1.58-1.268c0.526-0.428,1.125-0.746,1.698-1.103
							c2.336-1.362,4.915-2.262,7.545-2.831c5.287-1.109,10.708-1.021,16.059-0.817c-5.353-0.124-10.774-0.127-16.007,1.054
							c-2.606,0.585-5.154,1.485-7.451,2.842c-0.563,0.356-1.153,0.672-1.668,1.096c-0.531,0.402-1.078,0.784-1.549,1.257
							c-0.49,0.451-0.991,0.89-1.412,1.408c-0.44,0.499-0.889,0.989-1.294,1.527c-1.67,2.099-3.297,4.236-5.066,6.268
							c-1.761,2.034-3.756,3.901-6.033,5.374c-2.293,1.448-4.824,2.475-7.411,3.229c-2.596,0.767-5.25,1.187-7.753,2.101
							c-2.515,0.87-4.888,2.131-6.988,3.764c-2.109,1.626-3.957,3.573-5.716,5.589c-1.758,2.021-3.447,4.106-5.162,6.171
							c-0.854,1.035-1.717,2.064-2.585,3.089c-0.422,0.521-0.887,1.011-1.347,1.504c-0.465,0.488-0.904,1.001-1.39,1.467
							c-3.891,3.734-8.39,6.781-13.149,9.272c-2.376,1.257-4.82,2.38-7.307,3.393C569.441,340.116,566.92,341.05,564.344,341.806z"
							/>
						<g>
							<path style="fill:#33584F;" d="M653.571,275.025c-0.493,1.045-0.998,2.085-1.52,3.114c-0.514,1.034-1.039,2.063-1.579,3.083
								l-0.116-0.246c0.932,0.189,1.867,0.362,2.795,0.564l2.789,0.597c0.93,0.198,1.854,0.422,2.782,0.631
								c0.926,0.215,1.85,0.441,2.772,0.679c-0.94-0.147-1.878-0.305-2.814-0.474c-0.935-0.174-1.872-0.335-2.804-0.521
								l-2.797-0.556c-0.933-0.182-1.86-0.393-2.79-0.588l-0.222-0.047l0.106-0.199c0.544-1.018,1.102-2.03,1.67-3.035
								C652.403,277.02,652.981,276.019,653.571,275.025z"/>
							<path style="fill:#33584F;" d="M645.322,275.423c-0.284,1.779-0.6,3.55-0.926,5.321c-0.315,1.772-0.678,3.535-1.015,5.303
								l-0.148-0.215c1.012,0.155,2.019,0.341,3.029,0.51l3.027,0.524c2.015,0.367,4.03,0.735,6.037,1.15
								c-2.034-0.253-4.06-0.553-6.086-0.855l-3.034-0.479c-1.011-0.165-2.024-0.314-3.032-0.493l-0.187-0.033l0.038-0.182
								c0.37-1.761,0.713-3.528,1.105-5.285C644.509,278.931,644.899,277.174,645.322,275.423z"/>
							<path style="fill:#33584F;" d="M638.076,278.127c-0.25,2.764-0.55,5.522-0.849,8.281c-0.319,2.756-0.629,5.513-0.971,8.266
								l-0.158-0.201c2.295,0.294,4.594,0.56,6.886,0.878c2.294,0.304,4.587,0.619,6.876,0.965
								c-2.305-0.209-4.607-0.448-6.908-0.699c-2.302-0.237-4.598-0.526-6.897-0.786l-0.179-0.02l0.021-0.181
								c0.324-2.755,0.681-5.507,1.028-8.259C637.293,283.622,637.66,280.871,638.076,278.127z"/>
							<path style="fill:#33584F;" d="M630.295,284.835c-0.55,2.775-1.113,5.546-1.703,8.312c-0.578,2.768-1.198,5.528-1.795,8.292
								l-0.143-0.22l8.975,1.842l4.481,0.956l4.473,0.996l-4.51-0.811l-4.502-0.851l-8.99-1.771l-0.185-0.036l0.042-0.183
								c0.629-2.757,1.235-5.519,1.883-8.272C628.956,290.331,629.619,287.581,630.295,284.835z"/>
							<path style="fill:#33584F;" d="M621.335,288.766c-0.915,2.658-1.831,5.316-2.779,7.962c-0.93,2.652-1.902,5.29-2.856,7.933
								l-0.12-0.233c3.463,0.932,6.911,1.918,10.366,2.877l5.171,1.483l5.16,1.522l-5.212-1.333l-5.201-1.372
								c-3.459-0.945-6.926-1.862-10.378-2.834l-0.187-0.053l0.067-0.18c0.98-2.634,1.942-5.275,2.946-7.901
								C619.298,294.006,620.316,291.386,621.335,288.766z"/>
							<polygon style="fill:#33584F;" points="611.344,290.561 609.945,295.736 608.507,300.9 605.57,311.21 605.433,310.978 
								615.469,313.292 620.48,314.478 625.482,315.701 620.44,314.652 615.406,313.568 605.352,311.34 605.159,311.297 
								605.214,311.108 608.229,300.82 609.768,295.685 							"/>
							<path style="fill:#33584F;" d="M597.894,297.289l-0.326,6.161l-0.366,6.158l-0.818,12.311l-0.139-0.187
								c3.267,0.758,6.54,1.489,9.802,2.271c3.266,0.763,6.525,1.556,9.783,2.355c-3.284-0.685-6.566-1.375-9.842-2.096
								c-3.28-0.702-6.548-1.454-9.823-2.18l-0.151-0.033l0.011-0.154l0.871-12.307l0.478-6.151L597.894,297.289z"/>
							<path style="fill:#33584F;" d="M588.628,311.703c-0.286,3.24-0.584,6.479-0.91,9.715c-0.313,3.237-0.67,6.47-1.002,9.705
								l-0.165-0.202l10.688,1.036l5.341,0.554l5.337,0.595l-5.354-0.406l-5.351-0.447l-10.695-0.967l-0.186-0.017l0.021-0.185
								c0.366-3.232,0.707-6.466,1.092-9.696C587.816,318.157,588.216,314.929,588.628,311.703z"/>
							<path style="fill:#33584F;" d="M582.297,322.573c-0.636,2.294-1.308,4.578-1.988,6.859c-0.674,2.283-1.386,4.553-2.078,6.831
								l-0.153-0.237l3.776,0.474l3.774,0.485c2.514,0.338,5.028,0.68,7.537,1.067c-2.528-0.228-5.05-0.5-7.572-0.776l-3.78-0.436
								l-3.779-0.448l-0.221-0.026l0.067-0.211c0.722-2.268,1.423-4.542,2.163-6.804
								C580.778,327.085,581.52,324.824,582.297,322.573z"/>
						</g>
					</g>
				</g>
			</g>
			<g>
				<g>
					<path style="fill:#33584F;" d="M608.059,355.817c0.205,0.201,0.533,0.199,0.735-0.005c24.254-24.41,61.957-33.32,62.335-33.408
						c0.281-0.064,0.456-0.345,0.391-0.626c-0.065-0.281-0.345-0.457-0.626-0.391c-0.381,0.087-38.37,9.061-62.841,33.689
						c-0.203,0.204-0.202,0.535,0.003,0.738C608.057,355.815,608.058,355.816,608.059,355.817z"/>
				</g>
				<g>
					<path style="fill:#33584F;" d="M665.095,323.459c0,0,11.362,2.793,17.331-0.874
						C688.396,318.917,681.204,309.023,665.095,323.459z"/>
				</g>
				<g>
					<path style="fill:#33584F;" d="M653.921,327.262c0,0,12.43-15.939,12.906-22.929
						C667.304,297.343,658.835,299.65,653.921,327.262z"/>
				</g>
				<g>
					<path style="fill:#33584F;" d="M652.933,327.228c0,0,16.687,14.365,23.588,15.573
						C683.423,344.009,684.476,336.064,652.933,327.228z"/>
				</g>
				<g>
					<path style="fill:#33584F;" d="M635.738,335.579c0,0,12.139-15.807,12.615-22.797
						C648.83,305.792,639.61,306.777,635.738,335.579z"/>
				</g>
				<g>
					<path style="fill:#33584F;" d="M636.198,334.97c0,0,16,13.462,22.902,14.669C666.001,350.847,660.747,339.583,636.198,334.97z"
						/>
				</g>
				<g>
					<path style="fill:#33584F;" d="M621.21,345.295c0,0,9.929-16.781,10.406-23.771C632.093,314.533,622.46,316.303,621.21,345.295
						z"/>
				</g>
				<g>
					<path style="fill:#33584F;" d="M621.215,344.01c0,0,14.3,12.889,21.202,14.097C649.318,359.315,647.418,351.337,621.215,344.01
						z"/>
				</g>
			</g>
		</g>
		<g>
			<defs>
				
					<rect id="SVGID_00000026871044081516157670000001077893540003549315_" x="213.402" y="138.419" width="326.253" height="208.141"/>
			</defs>
			<clipPath id="SVGID_00000153664824868987236300000000652927068122793141_">
				<use xlink:href="#SVGID_00000026871044081516157670000001077893540003549315_"  style="overflow:visible;"/>
			</clipPath>
			<g style="clip-path:url(#SVGID_00000153664824868987236300000000652927068122793141_);">
				<g>
					<g>
						<g>
							<g>
								<g>
									<g>
										<g>
											<g>
												<g>
													<g>
														<g>
															<path style="fill:#F3E7CC;" d="M236.112,235.751c38.043-75.934,131.754-107.294,209.301-70.042
																c77.551,37.251,109.576,129.008,71.532,204.942c-38.046,75.937-131.753,107.295-209.302,70.043
																C230.094,403.442,198.068,311.687,236.112,235.751z"/>
														</g>
														<g>
															<path style="fill:#C0C0BF;" d="M448.487,245.717c-0.165,0.176-0.339,0.423-0.506,0.707
																c0.003,0.05,0.011,0.102,0.025,0.16L448.487,245.717z"/>
														</g>
														<g>
															
																<radialGradient id="SVGID_00000162354013594055228020000017471723739717558912_" cx="301.3027" cy="243.4097" r="0.3539" gradientTransform="matrix(-0.4655 -0.8666 0.885 -0.4558 372.3627 619.5936)" gradientUnits="userSpaceOnUse">
																<stop  offset="0" style="stop-color:#FFFFFF"/>
																<stop  offset="0.2337" style="stop-color:#E5E5EF"/>
																<stop  offset="1" style="stop-color:#9393BE"/>
															</radialGradient>
															<path style="fill:url(#SVGID_00000162354013594055228020000017471723739717558912_);" d="M447.763,247.108
																c-0.164,0.175-0.338,0.421-0.505,0.703c0.005,0.05,0.012,0.101,0.027,0.159L447.763,247.108z"/>
														</g>
														<g>
															<defs>
																<path id="SVGID_00000025422165701758048680000013760299133846577337_" d="M236.112,235.751
																	c38.043-75.934,131.754-107.294,209.301-70.042c77.551,37.251,109.576,129.008,71.532,204.942
																	c-38.046,75.937-131.753,107.295-209.302,70.043C230.094,403.442,198.068,311.687,236.112,235.751z"/>
															</defs>
															<clipPath id="SVGID_00000104689654131923348900000012529857975995360927_">
																<use xlink:href="#SVGID_00000025422165701758048680000013760299133846577337_"  style="overflow:visible;"/>
															</clipPath>
															
																<radialGradient id="SVGID_00000068678771249442212750000008873658542100183723_" cx="106.77" cy="-110.7321" r="134.6103" gradientTransform="matrix(-0.8978 -0.4312 0.4404 -0.8791 640.6615 557.5984)" gradientUnits="userSpaceOnUse">
																<stop  offset="0" style="stop-color:#FFFFFF"/>
																<stop  offset="0.2602" style="stop-color:#FBFBFB;stop-opacity:0.7398"/>
																<stop  offset="0.5039" style="stop-color:#F0F0F0;stop-opacity:0.4961"/>
																<stop  offset="0.7411" style="stop-color:#DEDEDD;stop-opacity:0.2589"/>
																<stop  offset="0.9729" style="stop-color:#C4C4C3;stop-opacity:0.0271"/>
																<stop  offset="1" style="stop-color:#C0C0BF;stop-opacity:0"/>
															</radialGradient>
															
																<path style="opacity:0.5;clip-path:url(#SVGID_00000104689654131923348900000012529857975995360927_);fill:url(#SVGID_00000068678771249442212750000008873658542100183723_);" d="
																M381.33,527.399c32.765-65.4,113.474-92.413,180.267-60.328c66.795,32.085,94.374,111.114,61.608,176.516
																c-32.767,65.402-113.473,92.411-180.269,60.326C376.143,671.827,348.561,592.801,381.33,527.399z"/>
															
																<radialGradient id="SVGID_00000036222410635454464700000016322871995385104025_" cx="114.1736" cy="-93.6059" r="97.4292" gradientTransform="matrix(-0.8978 -0.4312 0.4404 -0.8791 640.6615 557.5984)" gradientUnits="userSpaceOnUse">
																<stop  offset="0" style="stop-color:#FFFFFF"/>
																<stop  offset="0.9032" style="stop-color:#C6C6C5;stop-opacity:0.0968"/>
																<stop  offset="1" style="stop-color:#C0C0BF;stop-opacity:0"/>
															</radialGradient>
															
																<path style="opacity:0.5;clip-path:url(#SVGID_00000104689654131923348900000012529857975995360927_);fill:url(#SVGID_00000036222410635454464700000016322871995385104025_);" d="
																M393.964,533.468c29.342-58.568,101.619-82.758,161.434-54.026c59.817,28.733,84.514,99.506,55.172,158.075
																c-29.344,58.569-101.619,82.757-161.436,54.024C389.319,662.807,364.619,592.037,393.964,533.468z"/>
														</g>
													</g>
												</g>
											</g>
										</g>
									</g>
								</g>
								<g>
									<defs>
										<path id="SVGID_00000129924917249721761100000013568057714502032061_" d="M236.112,235.751
											c38.043-75.934,131.754-107.294,209.301-70.042c77.551,37.251,109.576,129.008,71.532,204.942
											c-38.046,75.937-131.753,107.295-209.302,70.043C230.094,403.442,198.068,311.687,236.112,235.751z"/>
									</defs>
									<clipPath id="SVGID_00000031178940048724466810000014742942527568307124_">
										<use xlink:href="#SVGID_00000129924917249721761100000013568057714502032061_"  style="overflow:visible;"/>
									</clipPath>
									<g style="clip-path:url(#SVGID_00000031178940048724466810000014742942527568307124_);">
										<path style="fill:#EBD7AE;" d="M420.758,339.71c-0.249,3.412,2.052,6.788,1.196,10.105
											c-1.595,6.188-11.584,5.795-15.186,11.113c-1.732,2.558-1.564,5.997-0.379,8.838c1.185,2.842,3.251,5.229,5.241,7.6
											c2.562,3.053,5.1,6.256,6.318,10.024c1.217,3.767,0.87,8.257-1.861,11.166c-1.277,1.36-2.999,2.311-4.072,3.831
											c-3.096,4.382,0.757,10.256,4.885,13.728c4.128,3.473,9.214,7.371,8.835,12.687c-0.35,4.911-5.25,8.129-9.67,10.476
											c-0.712,2.212,2.869,3.217,4.09,5.204c1.447,2.356-0.874,5.22-3.209,6.746c-3.581,2.341-7.685,3.909-11.938,4.564
											l8.627,4.079c9.805,5.754,22.166,4.276,33.47,2.611c16.921-2.492,34.119-5.065,49.597-12.208
											c18.13-8.367,33.176-22.981,41.865-40.666c2.894-5.89,5.126-12.232,5.232-18.767c0.095-5.827-1.498-11.548-1.999-17.355
											c-0.601-6.966,0.374-13.972,0.176-20.96c-0.503-17.766-8.998-35.176-22.797-46.722c-2.506-2.097-5.483-4.103-8.773-3.902
											c-1.676,0.103-3.253,0.777-4.789,1.441c-4.787,2.07-9.573,4.14-14.36,6.21c-1.581,0.684-3.232,1.421-4.273,2.772
											c-1.785,2.319-1.168,5.7,0.33,8.206c2.233,3.735,6.041,6.293,8.767,9.7c2.726,3.407,4.158,8.652,1.215,11.881
											c-1.89,2.075-4.923,2.606-7.552,3.657c-2.629,1.051-5.299,3.426-4.669,6.137c0.45,1.936,2.432,3.19,3.145,5.049
											c0.834,2.173-0.314,4.691-2.121,6.193c-1.807,1.503-4.145,2.215-6.412,2.89c-3.361,1.001-6.824,2.014-10.325,1.718
											c-3.5-0.297-7.094-2.218-8.265-5.461c-1.284-3.557,0.601-7.378,1.056-11.124c0.688-5.668-2.277-11.607-7.268-14.556
											c-1.091-0.645-2.346-1.168-3.608-0.99c-3.614,0.509-5.815,6.302-9.142,4.83c-2.44-1.079-1.687-4.641-2.657-7.084
											c-1.674-4.22-8.009-3.997-12.086-1.862C424.115,333.227,421.024,336.076,420.758,339.71z"/>
										<path style="fill:#EBD7AE;" d="M222.28,222.816c-11.092,7.211-17.029,20.095-19.673,32.872
											c-6.915,33.417,4.976,67.533,17.014,99.527c8.385,22.285,17.919,45.884,38.736,59.799
											c8.403,5.616,16.577,9.725,23.61,17.089c4.765,4.988,8.758,9.676,15.751,11.581c3.396,0.925,12.601,2.9,14.434-0.935
											c2.688-5.622-8.814-12.99-7.343-18.406c0.654-2.409,4.071-2.398,6.433-3.328c5.234-2.062,5.177-9.897,1.528-14.11
											c-3.649-4.213-9.308-6.063-14.211-8.795c-12.283-6.843-19.932-19.349-27.035-31.312c-1.7-2.863-3.379-6.583-1.383-9.257
											c2.025-2.712,6.229-2.214,9.565-1.431c6.272,1.472,12.544,2.943,18.816,4.415c-0.942-6.323-0.474-13.059,2.7-18.642
											c3.174-5.583,9.436-9.736,15.943-9.258c4.985,0.366,9.376,3.245,13.333,6.236c6.135,4.636,11.872,9.776,17.133,15.348
											c2.385,2.526,4.739,5.194,7.827,6.835c3.087,1.641,7.154,2.035,9.979-0.009c-3.053-1.914-2.541-6.746-0.035-9.311
											c2.506-2.565,6.196-3.557,9.596-4.788c3.4-1.231,6.967-3.1,8.242-6.423c1.846-4.812-2.055-9.929-6.369-12.858
											c-4.91-3.333-11.508-6.712-11.265-12.557c0.224-5.369,6.446-8.85,7.417-14.138c0.456-2.485-0.324-5.011-1.096-7.42
											c-2.749-8.583-5.595-17.352-11.121-24.538c-5.526-7.186-14.347-12.606-23.489-11.719
											c-7.232,0.702-13.445,5.093-19.459,9.09c-2.314,1.538-5.245,3.091-7.752,1.876c-1.049-0.508-1.815-1.429-2.547-2.322
											c-1.863-2.272-3.725-4.544-5.588-6.815c-3.276-3.996-8.5-8.419-13.035-5.862c-2.801,1.579-3.623,5.074-4.423,8.139
											c-1.423,5.456-3.714,10.877-7.816,14.823c-4.103,3.946-10.304,6.147-15.778,4.419c-5.473-1.728-9.347-8.059-7.247-13.301
											c1.214-3.031,4.174-5.862,3.189-8.971c-0.688-2.171-3.197-3.38-5.518-3.35c-2.321,0.03-4.502,1.02-6.602,1.989
											c-2.353-5.401-0.604-11.56,0.721-17.287c1.325-5.727,1.97-12.403-1.952-16.845
											C238.447,217.129,228.732,218.622,222.28,222.816z"/>
										<path style="fill:#EBD7AE;" d="M350.521,227.938c7.614,5.371,18.548-2.904,27.43,0.061
											c6.267,2.092,9.285,9.011,10.671,15.35c1.387,6.339,2.064,13.239,6.326,18.2c0.821,0.956,1.848,1.858,3.112,2.033
											c1.161,0.161,2.398-0.314,3.49,0.102c0.981,0.373,1.554,1.354,2.016,2.28c1.648,3.306,2.895,6.866,5.252,9.731
											c2.357,2.865,6.248,4.939,9.849,3.889c2.133-5.659-4.409-12.904-0.361-17.452c1.779-1.999,4.878-2.305,6.946-4.017
											c3.356-2.779,2.77-8.051,0.949-11.967c-1.821-3.916-4.616-7.6-4.85-11.897c-0.165-3.038,0.99-5.976,1.532-8.971
											c1.04-5.742-0.264-11.858-3.564-16.713c-2.84-4.179-6.979-7.316-11.043-10.375c-7.217-5.433-14.434-10.866-21.651-16.298
											c-1.715-1.291-3.507-2.618-5.623-3.058c-2.116-0.44-4.652,0.286-5.577,2.201c-0.863,1.785-0.101,3.866,0.394,5.781
											c1.148,4.438,0.623,9.537-2.458,12.981c-3.081,3.444-9.049,4.452-12.52,1.384c-1.127-0.996-1.915-2.307-2.969-3.377
											c-3.82-3.881-11.189-3.451-14.513,0.845c-1.747,2.258-2.613,5.43-5.246,6.602c-6.503,2.896-14.024-8.307-20.621-2.485
											c-3.713,3.277-1.712,9.109,0.215,12.775c2.359,4.487,6.87,9.429,12.201,10.356c4.345,0.755,5.814-1.764,9.695-2.639
											C345.367,221.962,346.151,224.855,350.521,227.938z"/>
										<path style="fill:#EBD7AE;" d="M440.887,181.861c0.042,3.763-0.522,7.608,0.493,11.237
											c1.43,5.116,6.189,9.177,11.561,9.865c2.773,0.355,5.628-0.114,8.363,0.457c5.627,1.175,9.559,6.818,9.738,12.449
											c0.18,5.631-2.816,11.022-6.965,14.926c-1.948,1.833-4.181,3.43-5.68,5.631c-1.499,2.201-2.094,5.285-0.528,7.44
											c3.06,4.212,11.99,2.499,12.98,7.576c0.547,2.804-2.127,5.068-4.162,7.111c-2.035,2.044-3.477,5.786-1.086,7.418
											c0.969,0.661,2.238,0.668,3.418,0.629c4.855-0.163,9.698-0.694,14.47-1.585c1.981-0.37,4.135-0.918,5.296-2.532
											c0.869-1.207,1.002-2.787,1.74-4.074c0.645-1.124,1.705-1.952,2.739-2.75c3.494-2.698,7.608-5.557,11.978-4.737
											c5.204,0.976,8.353,6.799,13.556,7.778c5.355,1.007,10.351-3.918,11.326-9.171c0.975-5.253-0.932-10.567-2.87-15.557
											c-8.297-21.363-18.148-42.896-34.984-58.726c-10.583-9.95-23.487-17.207-36.666-23.52
											c-8.964-4.294-18.856-8.293-28.65-6.422l-10.145,3.653C430.652,153.725,440.726,167.492,440.887,181.861z"/>
										<path style="fill:#EBD7AE;" d="M279.871,234.644c0.171,0.511,0.4,1.029,0.822,1.373c0.387,0.315,0.891,0.448,1.378,0.572
											c1.744,0.445,3.554,0.892,5.329,0.587c0.875-0.15,1.723-0.482,2.611-0.497c1.51-0.027,2.856,0.847,4.181,1.556
											c2.775,1.485,5.889,2.359,9.047,2.539c0.393,0.022,0.833,0.019,1.121-0.245c0.248-0.227,0.312-0.584,0.326-0.916
											c0.095-2.229-1.395-4.218-3.021-5.781c-1.626-1.562-3.503-2.962-4.57-4.933c-0.915-1.69-1.145-3.643-1.36-5.544
											c-0.269-2.385-0.52-4.902,0.473-7.096c0.457-1.009,1.161-1.908,1.506-2.958c0.344-1.051,0.209-2.384-0.726-2.999
											c-0.787-0.518-1.831-0.354-2.761-0.17c-1.405,0.278-2.81,0.556-4.216,0.834c-1.793,0.355-3.902,0.98-4.413,2.7
											c-0.395,1.331,0.392,2.743,0.235,4.121c-0.322,2.84-3.382,5.141-4.72,7.589
											C279.515,228.301,279.074,231.444,279.871,234.644z"/>
										<path style="fill:#EBD7AE;" d="M393.09,319.487c1.03,0.947,1.471,2.345,2.272,3.485c2.573,3.665,8.516,3.729,12.138,1.045
											c0.322-0.238,0.634-0.497,0.867-0.82c0.332-0.46,0.483-1.025,0.54-1.585c0.242-2.401-1.131-4.676-2.72-6.52
											c-1.589-1.844-3.47-3.498-4.591-5.648c-1.142-2.191-1.4-4.72-2.321-7.009c-3.228-8.02-12.326-14.747-14.904-3.239
											c-0.861,3.843-1.523,8.886-0.696,12.786C384.991,318.204,389.372,316.067,393.09,319.487z"/>
									</g>
								</g>
							</g>
						</g>
					</g>
				</g>
			</g>
			<path style="clip-path:url(#SVGID_00000153664824868987236300000000652927068122793141_);fill:#EBD7AE;" d="M519.52,241.168
				c-18.959,33.766-75.807,58.283-142.991,58.283c-67.181,0-124.027-24.515-142.988-58.279
				c-33.918,74.831-1.611,163.152,74.103,199.523c77.55,37.252,171.256,5.893,209.302-70.043
				C538.141,328.346,537.578,281.134,519.52,241.168z"/>
		</g>
		<g>
			<g>
				<path style="fill:#BABABA;" d="M355.489,383.689c0,0,7.228-5.712,17.125-5.712s16.791,6.642,16.791,6.642
					s10.081-7.593,10.081-11.977c0-4.384-13.007-18.918-27.095-17.471c-14.087,1.447-27.132,13.067-27.577,17.066
					C344.369,376.235,355.489,383.689,355.489,383.689z"/>
				<path style="fill:#E8E8E8;" d="M126.488,323.011l-18.193-37.707c0,0,23.366,23.099,93.999,5.437
					c70.633-17.662,167.042-8.489,170.742,61.85C321.76,329.694,126.488,323.011,126.488,323.011z"/>
				<path style="fill:#EDEDED;" d="M372.391,355.17c0,0,5.927-30.119-50.591-52.052c-56.518-21.932-119.862-1.145-161.065,9.383
					c-41.203,10.527-55.778,4.24-55.778,4.24s19.659,28.961,20.461,29.223C126.221,346.227,372.391,355.17,372.391,355.17z"/>
				<path style="fill:#F6F6F6;" d="M104.957,316.742c2.994,0.745,6.071,1.117,9.144,1.362c3.077,0.221,6.164,0.324,9.248,0.23
					c6.168-0.134,12.317-0.796,18.383-1.867c6.076-1.042,12.049-2.529,18.01-4.13l17.911-4.661
					c11.954-3.062,23.956-5.967,36.055-8.464c12.097-2.485,24.29-4.648,36.636-5.713c12.355-1.205,24.816-0.35,37.064,1.239
					c12.254,1.673,24.406,4.323,36.054,8.468c11.602,4.147,22.826,9.86,31.964,18.123c4.534,4.135,8.486,8.903,11.502,14.201
					c3.026,5.29,5.084,11.095,6.11,17.061c-1.112-5.951-3.251-11.712-6.338-16.935c-3.077-5.231-7.071-9.909-11.628-13.95
					c-9.116-8.144-20.288-13.779-31.853-17.846c-11.607-4.068-23.72-6.649-35.93-8.257c-12.224-1.527-24.588-2.31-36.854-1.063
					c-12.281,1-24.459,3.1-36.546,5.523c-12.091,2.435-24.096,5.28-36.059,8.284l-17.929,4.575
					c-5.96,1.566-11.977,3.049-18.081,4.046c-6.104,0.991-12.281,1.57-18.467,1.619c-3.092,0.052-6.185-0.094-9.263-0.358
					C111.016,317.943,107.941,317.528,104.957,316.742z"/>
				<path style="fill:#E8E8E8;" d="M619.71,323.011l18.193-37.707c0,0-23.366,23.099-93.999,5.437
					c-70.633-17.662-167.042-8.489-170.742,61.85C424.438,329.694,619.71,323.011,619.71,323.011z"/>
				<path style="fill:#EDEDED;" d="M373.807,355.17c0,0-5.927-30.119,50.591-52.052c56.518-21.932,119.862-1.145,161.065,9.383
					c41.203,10.527,55.778,4.24,55.778,4.24s-19.658,28.961-20.461,29.223C619.978,346.227,373.807,355.17,373.807,355.17z"/>
				<path style="fill:#F6F6F6;" d="M641.241,316.742c-2.995,0.745-6.071,1.117-9.144,1.362c-3.077,0.221-6.164,0.324-9.248,0.23
					c-6.168-0.134-12.316-0.796-18.382-1.867c-6.076-1.042-12.049-2.529-18.01-4.13l-17.911-4.661
					c-11.954-3.062-23.956-5.967-36.055-8.464c-12.096-2.485-24.29-4.648-36.636-5.713c-12.354-1.205-24.816-0.35-37.064,1.239
					c-12.254,1.673-24.406,4.323-36.054,8.468c-11.602,4.147-22.826,9.86-31.964,18.123c-4.534,4.135-8.486,8.903-11.502,14.201
					c-3.026,5.29-5.084,11.095-6.11,17.061c1.112-5.951,3.251-11.712,6.338-16.935c3.077-5.231,7.071-9.909,11.628-13.95
					c9.116-8.144,20.288-13.779,31.853-17.846c11.607-4.068,23.72-6.649,35.93-8.257c12.224-1.527,24.588-2.31,36.854-1.063
					c12.281,1,24.459,3.1,36.546,5.523c12.091,2.435,24.096,5.28,36.059,8.284l17.93,4.575c5.96,1.566,11.977,3.049,18.081,4.046
					c6.104,0.991,12.282,1.57,18.467,1.619c3.092,0.052,6.185-0.094,9.263-0.358C635.183,317.943,638.257,317.528,641.241,316.742z"
					/>
				<path style="fill:#F6F6F6;" d="M105.984,387.612v-46.161c0,0,28.956,1.21,51.556-6.051
					c22.6-7.261,102.053-37.689,157.141-25.241c55.088,12.448,58.488,43.222,58.488,43.222s-12.949,0.19-26.316,14.877
					C328.189,372.311,105.984,387.612,105.984,387.612z"/>
				<g>
					<path style="fill:#E0E0E0;" d="M370.123,353.796c0,0-22.6-40.191-84.397-41.228c-43.389-1.04-71.332,10.373-97.11,18.326
						c38.014-11.564,79.431-21.951,116.239-15.026C335.577,321.649,358.116,337.626,370.123,353.796z"/>
					<path style="fill:#E0E0E0;" d="M364.717,353.796c0,0-36.97-42.611-128.959-27.57
						C292.013,319.885,339.714,329.846,364.717,353.796z"/>
					<path style="fill:#E0E0E0;" d="M359.096,356.165c0,0-26.125-19.823-84.92-18.526c-58.796,1.297-79.469,14.164-138.264,16.158
						c7.945,0.178,34.695-0.886,70.537-7.831C242.291,339.02,315.582,331.644,359.096,356.165z"/>
					<path style="fill:#E0E0E0;" d="M105.984,366.855c10.444,0.214,20.892-0.101,31.304-0.791
						c10.413-0.658,20.806-1.654,31.111-3.209c10.3-1.533,20.496-3.755,30.784-5.609c10.274-1.897,20.597-3.553,30.955-4.987
						c20.729-2.694,41.661-4.407,62.602-3.729c5.236,0.042,10.452,0.575,15.672,0.914c2.608,0.208,5.198,0.609,7.797,0.904
						c2.595,0.328,5.201,0.583,7.763,1.125l7.708,1.451c2.558,0.531,5.068,1.275,7.602,1.901l3.791,0.981
						c1.26,0.338,2.476,0.823,3.715,1.226l7.397,2.535l-7.456-2.354c-1.247-0.373-2.47-0.826-3.736-1.133l-3.808-0.887
						c-2.544-0.564-5.061-1.243-7.623-1.71l-7.715-1.259c-2.559-0.49-5.158-0.719-7.747-1.007c-2.593-0.258-5.174-0.622-7.774-0.794
						c-5.206-0.266-10.399-0.727-15.617-0.697c-10.421-0.276-20.848,0.189-31.252,0.807c-10.396,0.796-20.775,1.829-31.104,3.266
						c-10.335,1.384-20.641,2.989-30.908,4.837c-10.27,1.779-20.48,4.04-30.87,5.398
						C147.835,366.817,126.859,367.729,105.984,366.855z"/>
					<path style="fill:#E0E0E0;" d="M105.984,374.116c10.285-0.247,20.556-0.811,30.79-1.735c10.236-0.879,20.447-2.04,30.584-3.627
						c10.132-1.548,20.163-3.771,30.328-5.492c10.144-1.757,20.329-3.309,30.555-4.57c20.46-2.398,41.077-3.822,61.701-3.468
						c20.602,0.347,41.252,2.38,61.255,7.19c-10.096-1.94-20.271-3.437-30.509-4.26c-10.228-0.912-20.495-1.342-30.761-1.325
						c-20.533-0.038-41.054,1.388-61.426,3.915c-10.196,1.194-20.357,2.679-30.484,4.369c-10.123,1.631-20.177,3.874-30.419,5.195
						C147.177,373.089,126.565,374.427,105.984,374.116z"/>
					<path style="fill:#E0E0E0;" d="M346.853,368.257c-5.822-1.119-11.718-1.754-17.622-2.176c-5.9-0.464-11.814-0.744-17.731-0.853
						l-8.876-0.102l-8.877,0.036c-5.917,0.182-11.835,0.286-17.743,0.67c-11.834,0.429-23.631,1.526-35.434,2.544l-17.682,1.833
						c-5.889,0.672-11.77,1.415-17.676,2.026c5.832-1.076,11.688-2.02,17.537-3.034l17.643-2.412
						c11.798-1.351,23.635-2.434,35.508-3.027c11.873-0.517,23.777-0.725,35.658-0.122
						C323.414,364.278,335.35,365.285,346.853,368.257z"/>
				</g>
				<path style="fill:#F6F6F6;" d="M640.355,387.612v-46.161c0,0-28.956,1.21-51.556-6.051
					c-22.6-7.261-102.053-37.689-157.141-25.241c-55.088,12.448-58.488,43.222-58.488,43.222s12.949,0.19,26.316,14.877
					C418.15,372.311,640.355,387.612,640.355,387.612z"/>
				<path style="fill:#D1D1D1;" d="M346.853,368.257c0,0-0.225,2.229,1.083,3.979c2.5-3.393,14.95-15.15,25.234-15.15
					s23.835,13.097,24.696,15.15c1.479-2.183,1.621-3.979,1.621-3.979s-8.44-15.666-26.449-15.666S346.853,368.257,346.853,368.257z
					"/>
				<g>
					<path style="fill:#E0E0E0;" d="M376.65,353.796c0,0,22.6-40.191,84.397-41.228c43.389-1.04,71.331,10.373,97.11,18.326
						c-42.918-13.113-80.89-21.733-117.699-14.807C409.736,321.867,388.656,337.626,376.65,353.796z"/>
					<path style="fill:#E0E0E0;" d="M382.056,353.796c0,0,36.97-42.611,128.959-27.57
						C457.046,319.1,407.059,329.846,382.056,353.796z"/>
					<path style="fill:#E0E0E0;" d="M387.677,356.165c0,0,27.474-19.761,86.27-18.465c58.796,1.297,78.119,14.103,136.914,16.096
						c-7.945,0.178-34.695-0.886-70.537-7.831C504.482,339.02,431.191,331.644,387.677,356.165z"/>
					<path style="fill:#E0E0E0;" d="M640.789,366.855c-10.444,0.214-20.892-0.101-31.304-0.791
						c-10.413-0.658-20.806-1.654-31.111-3.209c-10.3-1.533-20.496-3.755-30.784-5.609c-10.274-1.897-20.597-3.553-30.955-4.987
						c-20.729-2.694-41.661-4.407-62.602-3.729c-5.236,0.042-10.451,0.575-15.672,0.914c-2.608,0.208-5.198,0.609-7.796,0.904
						c-2.595,0.328-5.201,0.583-7.763,1.125l-7.708,1.451c-2.558,0.531-5.068,1.275-7.602,1.901l-3.791,0.981
						c-1.26,0.338-2.476,0.823-3.715,1.226l-7.397,2.535l7.456-2.354c1.247-0.373,2.47-0.826,3.737-1.133l3.808-0.887
						c2.544-0.564,5.061-1.243,7.623-1.71l7.715-1.259c2.559-0.49,5.158-0.719,7.747-1.007c2.593-0.258,5.174-0.622,7.774-0.794
						c5.206-0.266,10.399-0.727,15.616-0.697c10.421-0.276,20.848,0.189,31.252,0.807c10.396,0.796,20.775,1.829,31.104,3.266
						c10.335,1.384,20.641,2.989,30.908,4.837c10.27,1.779,20.48,4.04,30.87,5.398C598.938,366.817,619.914,367.729,640.789,366.855
						z"/>
					<path style="fill:#E0E0E0;" d="M640.789,374.116c-10.285-0.247-20.556-0.811-30.79-1.735
						c-10.237-0.879-20.447-2.04-30.584-3.627c-10.132-1.548-20.163-3.771-30.328-5.492c-10.144-1.757-20.329-3.309-30.555-4.57
						c-20.46-2.398-41.077-3.822-61.7-3.468c-20.602,0.347-41.252,2.38-61.255,7.19c10.096-1.94,20.271-3.437,30.509-4.26
						c10.228-0.912,20.495-1.342,30.761-1.325c20.532-0.038,41.054,1.388,61.426,3.915c10.196,1.194,20.357,2.679,30.484,4.369
						c10.123,1.631,20.177,3.874,30.419,5.195C599.596,373.089,620.208,374.427,640.789,374.116z"/>
					<path style="fill:#E0E0E0;" d="M399.92,368.257c5.823-1.119,11.718-1.754,17.622-2.176c5.9-0.464,11.814-0.744,17.731-0.853
						l8.876-0.102l8.877,0.036c5.917,0.182,11.835,0.286,17.743,0.67c11.834,0.429,23.63,1.526,35.434,2.544l17.682,1.833
						c5.889,0.672,11.77,1.415,17.677,2.026c-5.832-1.076-11.688-2.02-17.537-3.034l-17.643-2.412
						c-11.798-1.351-23.635-2.434-35.508-3.027c-11.873-0.517-23.777-0.725-35.658-0.122
						C423.359,364.278,411.423,365.285,399.92,368.257z"/>
				</g>
			</g>
			<path style="fill:#5A79A0;" d="M407.738,368.795l-8.785-0.572c-0.668,3.702-2.176,7.128-4.354,10.087
				c-4.782,6.495-12.71,10.754-21.698,10.754c-8.973,0-16.889-4.245-21.673-10.722c-2.185-2.958-3.7-6.382-4.374-10.084
				l-8.785,0.572L89.567,385.019v9.336l251.392-15.385c5.518,11.897,17.729,20.185,31.942,20.185
				c14.226,0,26.447-8.303,31.958-20.217l251.914,15.417v-9.336L407.738,368.795z"/>
		</g>
		<g>
			<polygon style="fill:#3F5E6F;" points="178.711,424.802 439.077,393.913 561,408.784 303.455,482.441 			"/>
			<path style="fill:#CACACA;" d="M453.014,423.61c0,0-132.347,32.846-138.466,31.586c-6.119-1.26-58.61-18.161-55.798-21.657
				c2.812-3.496,173.335-13.399,173.335-13.399"/>
			<g>
				<g>
					<path style="fill:#1E2F36;" d="M370.152,312.094c-3.147-3.028-7.651-4.154-11.985-4.692c-2.484-0.308-5.267-0.603-6.864-2.53
						c-0.75-0.904-1.122-2.053-1.627-3.113c-2.968-6.235-10.73-9.161-17.549-8.069c-5.997,0.96-11.276,4.45-15.642,8.734
						c-6.866,1.163-14.128,2.388-16.249,2.806c-4.482,0.883-9.044,1.795-13.051,3.987c-4.007,2.192-7.446,5.909-8.137,10.424
						c-0.908,5.932,3.024,11.556,7.56,15.485c-4.163,3.135-5.441,9.261-3.564,14.122c1.877,4.861,6.448,8.385,11.468,9.785
						c5.02,1.4,10.424,0.868,15.41-0.647c2.592-0.788,5.19-1.848,7.896-1.718c7.038,0.338,12.741,8.525,19.543,6.689
						c1.854-0.5,3.42-1.708,5.043-2.735c4.003-2.533,8.548-4.052,12.836-6.066c4.288-2.014,8.496-4.692,10.912-8.767
						s2.525-9.817-0.817-13.175c4.034-1.269,7.285-4.771,8.251-8.887C374.552,319.608,373.199,315.026,370.152,312.094z"/>
				</g>
				<g>
					<path style="fill:#1E2F36;" d="M287.183,313.723c4.007-2.192,8.569-3.104,13.051-3.987c1.447-0.285,5.287-0.946,9.761-1.706
						l1.27-0.508c-0.209,0.144-0.423,0.277-0.641,0.401c1.9-0.323,3.894-0.66,5.859-0.993c4.366-4.284,9.645-7.774,15.642-8.734
						c6.819-1.092,14.581,1.834,17.549,8.069c0.505,1.061,0.878,2.209,1.627,3.113c1.597,1.927,4.38,2.222,6.864,2.53
						c4.334,0.538,8.838,1.664,11.985,4.692c1.837,1.767,3.044,4.137,3.513,6.64c0.757-3.989-0.583-8.328-3.513-11.146
						c-3.147-3.028-7.651-4.154-11.985-4.692c-2.484-0.308-5.267-0.603-6.864-2.53c-0.75-0.904-1.122-2.053-1.627-3.113
						c-2.968-6.235-10.73-9.161-17.549-8.069c-5.997,0.96-11.276,4.45-15.642,8.734c-6.866,1.163-14.128,2.388-16.249,2.806
						c-4.482,0.883-9.044,1.795-13.051,3.987c-4.007,2.192-7.446,5.909-8.137,10.424c-0.21,1.374-0.152,2.73,0.105,4.054
						C279.997,319.387,283.313,315.84,287.183,313.723z"/>
				</g>
			</g>
			<g>
				<path style="fill:#2A3D47;" d="M430.733,367.004c3.467-0.8,6.935-1.6,10.402-2.401c-0.488-1.775-0.749-3.593-0.285-4.788
					c0.005-0.014,0.018-0.028,0.024-0.042c-4.501,0.401-9.002,0.802-13.504,1.203C428.092,362.563,429.407,364.837,430.733,367.004z
					"/>
				<path style="fill:#B2CC85;" d="M451.322,348.65c-1.666-4.046-8.568-4.046-11.186-2.618c-0.252,0.138-0.596,0.374-0.978,0.653
					c3.083,2.498,6.786,4.179,10.385,6.025C450.995,351.382,451.884,350.017,451.322,348.65z"/>
				<path style="fill:#B2CC85;" d="M434.662,373.164l8.568-3.094c0,0-1.329-2.681-2.095-5.467c-3.467,0.8-6.935,1.6-10.402,2.401
					C432.697,370.216,434.662,373.164,434.662,373.164z"/>
				<path style="fill:#2A3D47;" d="M449.542,352.711c-3.598-1.846-7.301-3.527-10.385-6.025c-1.711,1.251-4.539,3.756-7.072,6.235
					c4.277,1.202,8.593,2.261,12.947,3.143C446.6,354.99,448.281,353.865,449.542,352.711z"/>
				<path style="fill:#B2CC85;" d="M445.033,356.063c-4.354-0.882-8.671-1.941-12.947-3.143c-2.769,2.71-5.165,5.367-5.278,6.245
					c-0.042,0.325,0.182,0.978,0.562,1.811c4.501-0.401,9.003-0.802,13.504-1.203C441.339,358.65,443.083,357.397,445.033,356.063z"
					/>
			</g>
			<g>
				<path style="fill:#3F5E6F;" d="M482.61,360.416c2.959,1.976,5.919,3.953,8.878,5.929c0.958-1.572,2.103-3.008,3.291-3.49
					c0.014-0.005,0.033-0.006,0.047-0.011c-3.377-3.003-6.755-6.005-10.132-9.008C484.034,355.448,483.279,357.965,482.61,360.416z"
					/>
				<path style="fill:#D8F7A1;" d="M510.086,362.827c1.804-3.986-2.927-9.012-5.761-9.939c-0.273-0.09-0.68-0.178-1.146-0.265
					c0.295,3.957,1.609,7.805,2.731,11.691C507.873,364.461,509.477,364.173,510.086,362.827z"/>
				<path style="fill:#D8F7A1;" d="M480.817,367.499l8.126,4.118c0,0,1.041-2.805,2.545-5.272c-2.959-1.976-5.919-3.953-8.878-5.929
					C481.617,364.048,480.817,367.499,480.817,367.499z"/>
				<path style="fill:#3F5E6F;" d="M505.91,364.314c-1.122-3.886-2.436-7.734-2.731-11.691c-2.084-0.389-5.846-0.731-9.388-0.876
					c2.056,3.938,4.244,7.807,6.586,11.582C502.233,363.734,504.205,364.186,505.91,364.314z"/>
				<path style="fill:#D8F7A1;" d="M500.378,363.328c-2.342-3.775-4.53-7.644-6.586-11.582c-3.872-0.159-7.448-0.083-8.165,0.438
					c-0.265,0.193-0.587,0.803-0.934,1.651c3.377,3.003,6.755,6.005,10.132,9.008C495.962,362.412,498.07,362.823,500.378,363.328z"
					/>
			</g>
			<path style="fill:#A25D16;" d="M443.069,402.583c0,0-17.612-30.464-16.184-32.13c1.428-1.666,16.422-7.854,17.612-6.664
				c1.19,1.19,28.084,36.176,28.084,36.176"/>
			<path style="fill:#C8711B;" d="M396.421,390.207c6.188-2.856,14.042-7.378,21.42-4.998c7.378,2.38,17.374,12.614,19.278,13.566
				c1.904,0.952,27.608,2.142,27.608,2.142s10.71-36.414,14.994-38.318c4.284-1.904,12.614,3.094,12.376,5.95
				s-2.856,53.312-5.95,55.454c-3.094,2.142-86.157,4.975-86.157,4.975l-3.57-14.257"/>
			<g>
				<path style="fill:#BA8F61;" d="M298.216,395.832c-1.933,5.047-4.558,12.314-6.715,18.703c-2.41,7.138-4.234,13.169-3.846,13.751
					c0.952,1.428,18.088,0.238,19.278,0c0.606-0.121,2.57-6.293,4.352-12.321c1.716-5.806,3.264-11.479,3.264-11.479
					C308.766,398.349,302.193,396.427,298.216,395.832z"/>
				<path style="fill:#2F4450;" d="M311.93,369.024c-10.234,7.378-9.52,17.85-11.186,20.706c-0.38,0.651-1.319,2.945-2.528,6.102
					c3.978,0.595,10.55,2.517,16.332,8.654l8.75-37.902C319.478,366.068,315.427,366.504,311.93,369.024z"/>
				<path style="fill:#DD5213;" d="M409.273,411.151c-2.142-7.378-12.852-20.944-12.852-20.944s-2.618,2.38-4.76,1.428
					c-2.142-0.952-19.168-25.481-29.402-25.243c-10.234,0.238-25.1,5.727-25.1,5.727s-6.499-4.537-13.86-5.533
					c0,0-11.682,18.915-10.216,34.18c0.454,4.731,2.894,13.956,17.174,14.432c0,0,15.708,12.33,24.038,13.781
					c8.33,1.451,43.554,1.405,45.696,0C402.133,427.573,411.415,418.529,409.273,411.151z"/>
			</g>
			<g>
				<path style="fill:#2F4450;" d="M356.983,409.589c0,0-9.78-1.392-12.642-4.731c-2.862-3.339,1.67-40.789,19.798-37.688
					c18.128,3.101,9.541,42.458,7.633,43.889C369.863,412.491,356.983,409.589,356.983,409.589z"/>
				<path style="fill:#BA8F61;" d="M346.726,403.427c0,0,13.835,0.716,21.706,6.202c0,0-5.486,27.192-8.587,28.385
					c-3.101,1.193-50.568-4.532-50.568-4.532l34.825-11.449L346.726,403.427z"/>
			</g>
			<path style="fill:#BA8F61;" d="M310.757,321.465c-1.349-0.018-12.541,22.654-12.541,22.654s13.746,27.281,18.945,26.776
				c5.199-0.506,10.496-2.01,10.496-2.01l0.928,8.287c0,0-5.014,6.87,3.157,11.141c8.17,4.271,17.269-13.77,16.341-15.148
				c-0.928-1.378-2.043-18.833-2.043-18.833s7.056-1.3,9.099-6.685c2.043-5.385-0.928-12.998-3.9-12.07
				c-2.971,0.928-7.69,9.589-7.69,9.589s0.076,7.431-1.038,7.277c-1.114-0.154-3.602,0.244-3.658-1.069
				c-0.056-1.314-0.984-10.598-0.984-10.598S324.31,321.65,310.757,321.465z"/>
			<path style="fill:#DD5213;" d="M314.548,341.007c-1.096,0.075-3.815,6.407-3.074,7.931c0.742,1.524,6.859,2.184,7.23,0
				C319.075,346.754,317.251,340.822,314.548,341.007z"/>
			<path style="fill:#1E2F36;" d="M327.576,340.977c0.086,1.289-0.714,2.392-1.788,2.464c-1.074,0.072-2.015-0.914-2.101-2.203
				c-0.086-1.289,0.714-2.392,1.788-2.464C326.549,338.702,327.49,339.689,327.576,340.977z"/>
			<path style="fill:#1E2F36;" d="M307.962,344.636c0.086,1.289-0.714,2.392-1.788,2.464s-2.015-0.915-2.101-2.203
				c-0.086-1.289,0.714-2.392,1.788-2.464C306.935,342.361,307.876,343.347,307.962,344.636z"/>
			<path style="fill:#1E2F36;" d="M318.197,359.325c2.841-1.27,5.321-3.119,7.356-5.474c0.624-0.723-0.425-1.781-1.054-1.054
				c-1.96,2.268-4.318,4.017-7.054,5.241C316.571,358.429,317.328,359.714,318.197,359.325L318.197,359.325z"/>
			<path style="fill:#1E2F36;" d="M351.857,340.919c-3.644,1.138-5.025,6.008-5.552,9.346c-0.148,0.938,1.288,1.342,1.437,0.396
				c0.426-2.695,1.496-7.363,4.511-8.305C353.166,342.072,352.776,340.632,351.857,340.919L351.857,340.919z"/>
			<path style="fill:#1E2F36;" d="M348.152,346.956c0.751,0.351,1.474,0.747,2.173,1.192c0.812,0.516,1.56-0.773,0.752-1.287
				c-0.7-0.445-1.422-0.841-2.173-1.192C348.04,345.266,347.283,346.55,348.152,346.956L348.152,346.956z"/>
			<path style="fill:#1E2F36;" d="M301.201,338.686c1.221-2.413,3.676-3.778,6.368-3.558c0.956,0.078,0.951-1.413,0-1.49
				c-3.176-0.259-6.218,1.455-7.655,4.296C299.483,338.787,300.768,339.543,301.201,338.686L301.201,338.686z"/>
			<path style="fill:#1E2F36;" d="M329.824,332.523c-2.666-2.42-8.172-3.751-10.524-0.176c-0.529,0.804,0.761,1.551,1.287,0.752
				c1.786-2.716,6.295-1.237,8.183,0.477C329.479,334.22,330.536,333.169,329.824,332.523L329.824,332.523z"/>
			<g>
				<path style="fill:#C8711B;" d="M277.921,420.139c0,0-36.826,11.108-36.992,12.104c-0.166,0.996,32.194,14.935,32.194,14.935
					s2.526,2.553,5.808,2.323c0,0,27.157,10.455,28.514,10.455c1.357,0,48.32-15.433,48.32-16.097
					C355.766,443.196,277.921,420.139,277.921,420.139z"/>
				<g>
					<path style="fill:#FFFFFF;" d="M303.16,428.115c0,0,12.605-7.137,22.394-0.431c9.789,6.706,25.147,15.992,25.147,15.992
						l-43.625,13.9l-28.116-10.22l-32.287-14.464l34.311-12.541C280.984,420.351,298.87,413.585,303.16,428.115z"/>
					<path style="fill:#E3E3E3;" d="M307.003,457.55l-0.711-6.701c-3.083-0.391-12.134-4.864-17.071-8.886
						c-4.937-4.021-9.904-0.59-9.904-0.59c-2.844-7.147-11.478-5.447-15.01-5.252c-3.532,0.195-7.595-4.585-7.595-4.585
						l-10.038,1.356l32.287,14.464L307.003,457.55z"/>
				</g>
			</g>
			<path style="fill:#CACACA;" d="M338.854,363.637c0,0-5.787,3.432-11.197,5.247l0.928,8.287c0,0-0.186,0.258-0.428,0.699
				C337.609,377.226,338.854,363.637,338.854,363.637z"/>
		</g>
		<path style="fill:#FFFFFF;" d="M447.197,107.702H547.44c8.489-0.118,10.358-0.737,10.415-1.302
			c0.178-1.754-16.848-5.709-33.848-6.509c-5.4-0.254-9.898-0.148-13.019,0c0.857-8.485-4.839-15.772-11.717-16.924
			c-7.933-1.329-16.794,5.612-16.924,15.622c-2.046-4.819-7.057-7.483-11.717-6.509c-3.766,0.787-6.813,3.847-7.811,7.811
			c-3.534-0.709-8.456-1.409-14.32-1.302c-14.818,0.27-28.976,5.563-28.641,7.811C420.055,107.722,425.375,108.763,447.197,107.702z
			"/>
		<circle style="fill:#F0C93C;" cx="388.928" cy="58.059" r="37.5"/>
		<g>
			<g>
				<g>
					<g>
						<g>
							<g>
								<polygon style="fill:#E9A727;" points="502.888,113.03 620.167,118.373 620.697,122.5 597.833,240.231 596.543,245.866 
									473.134,239.255 								"/>
							</g>
							<g>
								<polygon style="fill:#F0C93C;" points="504.218,109.611 620.167,118.373 596.017,242.646 474.171,234.976 								"/>
							</g>
						</g>
					</g>
					<polygon style="fill:#EBEBEB;" points="617.313,118.157 593.838,237.992 476.821,231.063 509.031,103.196 614.775,101.18 					
						"/>
					<polygon style="fill:#FFFFFF;" points="588.063,223.033 471.34,222.192 509.031,103.196 614.775,101.18 					"/>
					<g>
						<g>
							<path style="fill:#DEDEDE;" d="M516.925,114.099c0.054,0.029,0.117,0.046,0.183,0.045l88.443-0.45
								c0.21-0.001,0.378-0.168,0.377-0.372c0-0.205-0.171-0.371-0.38-0.369l-88.443,0.45c-0.209,0.001-0.378,0.168-0.377,0.373
								C516.728,113.914,516.808,114.036,516.925,114.099z"/>
						</g>
						<g>
							<path style="fill:#DEDEDE;" d="M514.424,123.163c0.054,0.029,0.117,0.046,0.183,0.045l88.443-0.45
								c0.209-0.001,0.378-0.168,0.377-0.372c-0.001-0.205-0.17-0.371-0.38-0.369l-88.443,0.45c-0.209,0-0.378,0.168-0.377,0.373
								C514.227,122.979,514.307,123.101,514.424,123.163z"/>
						</g>
						<g>
							<path style="fill:#DEDEDE;" d="M511.923,132.228c0.054,0.029,0.116,0.046,0.183,0.045l88.443-0.45
								c0.209-0.001,0.378-0.168,0.377-0.373c-0.001-0.205-0.17-0.371-0.38-0.368l-88.443,0.45
								c-0.209,0.001-0.378,0.168-0.377,0.373C511.726,132.044,511.805,132.165,511.923,132.228z"/>
						</g>
						<g>
							<path style="fill:#DEDEDE;" d="M509.421,141.292c0.054,0.029,0.117,0.046,0.183,0.045l88.443-0.45
								c0.209-0.001,0.378-0.168,0.377-0.373c-0.002-0.203-0.169-0.371-0.38-0.368l-88.443,0.45
								c-0.209,0.001-0.378,0.168-0.377,0.373C509.225,141.108,509.304,141.23,509.421,141.292z"/>
						</g>
						<g>
							<path style="fill:#DEDEDE;" d="M506.92,150.357c0.054,0.029,0.117,0.046,0.183,0.045l89.238-0.454
								c0.209,0,0.378-0.168,0.377-0.373c-0.001-0.204-0.17-0.371-0.381-0.368l-89.238,0.454c-0.209,0.001-0.378,0.168-0.377,0.373
								C506.724,150.173,506.803,150.294,506.92,150.357z"/>
						</g>
						<g>
							<path style="fill:#DEDEDE;" d="M504.419,159.421c0.054,0.029,0.117,0.046,0.183,0.045l89.642-0.456
								c0.209-0.001,0.378-0.168,0.377-0.373c-0.001-0.204-0.17-0.371-0.381-0.368l-89.642,0.456c-0.209,0-0.378,0.168-0.377,0.373
								C504.222,159.237,504.302,159.359,504.419,159.421z"/>
						</g>
						<g>
							<path style="fill:#DEDEDE;" d="M501.917,168.487c0.054,0.029,0.117,0.046,0.183,0.045l89.566-0.456
								c0.209,0,0.378-0.168,0.377-0.373c-0.001-0.203-0.17-0.372-0.381-0.368l-89.566,0.456c-0.209,0.001-0.378,0.168-0.377,0.373
								C501.721,168.303,501.8,168.424,501.917,168.487z"/>
						</g>
						<g>
							<path style="fill:#DEDEDE;" d="M499.416,177.551c0.054,0.029,0.117,0.046,0.183,0.045l90.043-0.459
								c0.209,0,0.378-0.168,0.377-0.373c-0.001-0.203-0.17-0.372-0.381-0.368l-90.043,0.459c-0.209,0.001-0.378,0.168-0.377,0.373
								C499.219,177.367,499.299,177.489,499.416,177.551z"/>
						</g>
						<g>
							<path style="fill:#DEDEDE;" d="M496.915,186.616c0.054,0.029,0.117,0.046,0.183,0.045l90.58-0.461
								c0.209-0.001,0.378-0.168,0.377-0.373c-0.001-0.204-0.17-0.372-0.381-0.368l-90.58,0.461
								c-0.209,0.001-0.378,0.168-0.377,0.373C496.718,186.432,496.798,186.553,496.915,186.616z"/>
						</g>
						<g>
							<path style="fill:#DEDEDE;" d="M494.414,195.68c0.054,0.029,0.117,0.046,0.183,0.045l91.057-0.463
								c0.209-0.001,0.378-0.168,0.377-0.373c-0.001-0.204-0.17-0.372-0.381-0.368l-91.056,0.463
								c-0.209,0.001-0.378,0.168-0.377,0.373C494.217,195.496,494.296,195.618,494.414,195.68z"/>
						</g>
						<g>
							<path style="fill:#DEDEDE;" d="M491.913,204.745c0.054,0.029,0.117,0.046,0.183,0.045l91.228-0.464
								c0.209-0.001,0.378-0.168,0.377-0.373c-0.001-0.204-0.169-0.372-0.381-0.368l-91.228,0.464
								c-0.209,0.001-0.378,0.168-0.377,0.373C491.716,204.561,491.795,204.682,491.913,204.745z"/>
						</g>
						<g>
							<path style="fill:#DEDEDE;" d="M489.411,213.809c0.054,0.029,0.117,0.046,0.183,0.045l91.361-0.465
								c0.209-0.001,0.378-0.168,0.377-0.373c-0.001-0.204-0.17-0.371-0.381-0.368l-91.362,0.465c-0.209,0-0.378,0.168-0.377,0.373
								C489.215,213.625,489.294,213.747,489.411,213.809z"/>
						</g>
					</g>
					<polygon style="fill:#D99724;" points="466.443,222.251 473.134,239.255 474.798,232.387 470.939,220.897 469.884,221.141 
											"/>
					<polygon style="fill:#E9A727;" points="468.813,221.143 474.203,234.843 473.134,239.255 466.443,222.251 					"/>
					<polygon style="fill:#E3E3E3;" points="593.838,237.992 588.063,223.033 470.939,220.897 474.798,232.387 					"/>
				</g>
			</g>
			<polygon style="fill:#F3F3F3;" points="536.31,63.408 594.439,54.778 565.837,187.443 471.026,221.156 			"/>
			<polygon style="fill:#E8E8E8;" points="536.31,63.408 577.674,42.688 549.073,175.354 471.026,221.156 			"/>
			<polygon style="fill:#E0E0E0;" points="536.31,63.408 564.519,25.9 535.918,158.566 471.035,220.998 			"/>
			<g>
				<g>
					<polygon style="fill:#E9A727;" points="556.377,18.938 552.952,17.559 495.878,96.35 466.443,222.251 467.715,225.484 
						524.735,150.933 					"/>
				</g>
				<g>
					<polygon style="fill:#F0C93C;" points="552.952,17.559 495.878,96.35 466.443,222.251 521.755,147.832 					"/>
				</g>
				<path style="fill:#F3D33F;" d="M529.999,113.404l22.953-95.845l-53.574,73.958C507.962,99.284,518.59,106.958,529.999,113.404z"
					/>
			</g>
		</g>
	</g>
</g>
</svg>
